<svg width="16" height="16" viewBox="0 0 16 16" fill="none" xmlns="http://www.w3.org/2000/svg">
<path d="M3.9987 14.6673C5.24369 14.6673 6.2894 13.8141 6.58308 12.6606C6.67392 12.3038 6.96384 12.0007 7.33203 12.0007H11.9987M3.9987 14.6673C2.52594 14.6673 1.33203 13.4734 1.33203 12.0007V3.33398C1.33203 2.22941 2.22746 1.33398 3.33203 1.33398H9.9987C11.1033 1.33398 11.9987 2.22941 11.9987 3.33398V12.0007M3.9987 14.6673H11.9987C13.2437 14.6673 14.2894 13.8141 14.5831 12.6606C14.6739 12.3038 14.3669 12.0007 13.9987 12.0007H11.9987M6.66536 8.66732V4.66732M4.66536 6.66732H8.66536" stroke="#333333" stroke-width="1.2" stroke-linecap="round"/>
</svg>
