<svg width="22" height="22" viewBox="0 0 22 22" fill="none" xmlns="http://www.w3.org/2000/svg">
<path d="M1 6H21M13 11H17M13 15H17M6.44721 15.2764L9.21115 13.8944C9.94819 13.5259 9.94819 12.4741 9.21115 12.1056L6.44721 10.7236C5.78231 10.3912 5 10.8747 5 11.618V14.382C5 15.1253 5.78231 15.6088 6.44721 15.2764ZM5 21H17C19.2091 21 21 19.2091 21 17V5C21 2.79086 19.2091 1 17 1H5C2.79086 1 1 2.79086 1 5V17C1 19.2091 2.79086 21 5 21Z" stroke="#868686" stroke-width="1.5" stroke-linecap="round"/>
</svg>
