<svg width="20" height="20" viewBox="0 0 20 20" fill="none" xmlns="http://www.w3.org/2000/svg">
<path d="M13.3333 3.33366H14.1667C16.0076 3.33366 17.5 4.82604 17.5 6.66699V15.0003C17.5 16.8413 16.0076 18.3337 14.1667 18.3337H5.83333C3.99238 18.3337 2.5 16.8413 2.5 15.0003V6.66699C2.5 4.82604 3.99238 3.33366 5.83333 3.33366H6.66667M13.3333 3.33366C13.3333 4.25413 12.5871 5.00033 11.6667 5.00033H8.33333C7.41286 5.00033 6.66667 4.25413 6.66667 3.33366M13.3333 3.33366C13.3333 2.41318 12.5871 1.66699 11.6667 1.66699H8.33333C7.41286 1.66699 6.66667 2.41318 6.66667 3.33366M6.66667 8.33366H13.3333M6.66667 11.667H13.3333M6.66667 15.0003H10" stroke="#DAA520" stroke-width="1.5" stroke-linecap="round" stroke-linejoin="round"/>
</svg>
