<svg xmlns="http://www.w3.org/2000/svg" width="20" height="20" viewBox="0 0 20 20" fill="none">
    <path d="M13.3333 3.33268H14.1667C16.0076 3.33268 17.5 4.82507 17.5 6.66602V14.9993C17.5 16.8403 16.0076 18.3327 14.1667 18.3327H5.83333C3.99238 18.3327 2.5 16.8403 2.5 14.9993V6.66602C2.5 4.82507 3.99238 3.33268 5.83333 3.33268H6.66667M13.3333 3.33268C13.3333 4.25316 12.5871 4.99935 11.6667 4.99935H8.33333C7.41286 4.99935 6.66667 4.25316 6.66667 3.33268M13.3333 3.33268C13.3333 2.41221 12.5871 1.66602 11.6667 1.66602H8.33333C7.41286 1.66602 6.66667 2.41221 6.66667 3.33268M6.66667 8.33268H13.3333M6.66667 11.666H13.3333M6.66667 14.9993H10" stroke="#136B80" stroke-width="1.5" stroke-linecap="round" stroke-linejoin="round"/>
  </svg>