<svg width="20" height="20" viewBox="0 0 20 20" fill="none" xmlns="http://www.w3.org/2000/svg">
<g clip-path="url(#clip0_1693_44711)">
<path d="M9.9974 10.0003H9.2474C9.2474 10.3231 9.45397 10.6098 9.76023 10.7118L9.9974 10.0003ZM10.7474 5.83366C10.7474 5.41945 10.4116 5.08366 9.9974 5.08366C9.58318 5.08366 9.2474 5.41945 9.2474 5.83366H10.7474ZM12.2602 11.5452C12.6532 11.6762 13.0779 11.4638 13.2089 11.0708C13.3399 10.6779 13.1275 10.2531 12.7346 10.1221L12.2602 11.5452ZM10.7474 10.0003V5.83366H9.2474V10.0003H10.7474ZM9.76023 10.7118L12.2602 11.5452L12.7346 10.1221L10.2346 9.28881L9.76023 10.7118ZM17.5807 10.0003C17.5807 14.1885 14.1856 17.5837 9.9974 17.5837V19.0837C15.014 19.0837 19.0807 15.0169 19.0807 10.0003H17.5807ZM9.9974 17.5837C5.80924 17.5837 2.41406 14.1885 2.41406 10.0003H0.914062C0.914062 15.0169 4.98081 19.0837 9.9974 19.0837V17.5837ZM2.41406 10.0003C2.41406 5.81217 5.80924 2.41699 9.9974 2.41699V0.916992C4.98081 0.916992 0.914062 4.98374 0.914062 10.0003H2.41406ZM9.9974 2.41699C14.1856 2.41699 17.5807 5.81217 17.5807 10.0003H19.0807C19.0807 4.98374 15.014 0.916992 9.9974 0.916992V2.41699Z" fill="#DAA520"/>
</g>
<defs>
<clipPath id="clip0_1693_44711">
<rect width="20" height="20" fill="white"/>
</clipPath>
</defs>
</svg>
