<svg xmlns="http://www.w3.org/2000/svg" width="20" height="20" viewBox="0 0 20 20" fill="none">
    <g clip-path="url(#clip0_39_44834)">
      <path d="M9.9974 9.99935H9.2474C9.2474 10.3222 9.45397 10.6088 9.76023 10.7109L9.9974 9.99935ZM10.7474 5.83268C10.7474 5.41847 10.4116 5.08268 9.9974 5.08268C9.58318 5.08268 9.2474 5.41847 9.2474 5.83268H10.7474ZM12.2602 11.5442C12.6532 11.6752 13.0779 11.4628 13.2089 11.0699C13.3399 10.6769 13.1275 10.2522 12.7346 10.1212L12.2602 11.5442ZM10.7474 9.99935V5.83268H9.2474V9.99935H10.7474ZM9.76023 10.7109L12.2602 11.5442L12.7346 10.1212L10.2346 9.28784L9.76023 10.7109ZM17.5807 9.99935C17.5807 14.1875 14.1856 17.5827 9.9974 17.5827V19.0827C15.014 19.0827 19.0807 15.0159 19.0807 9.99935H17.5807ZM9.9974 17.5827C5.80924 17.5827 2.41406 14.1875 2.41406 9.99935H0.914062C0.914062 15.0159 4.98081 19.0827 9.9974 19.0827V17.5827ZM2.41406 9.99935C2.41406 5.81119 5.80924 2.41602 9.9974 2.41602V0.916016C4.98081 0.916016 0.914062 4.98276 0.914062 9.99935H2.41406ZM9.9974 2.41602C14.1856 2.41602 17.5807 5.81119 17.5807 9.99935H19.0807C19.0807 4.98276 15.014 0.916016 9.9974 0.916016V2.41602Z" fill="#136B80"/>
    </g>
    <defs>
      <clipPath id="clip0_39_44834">
        <rect width="20" height="20" fill="white"/>
      </clipPath>
    </defs>
  </svg>