<svg width="24" height="24" viewBox="0 0 24 24" fill="none" xmlns="http://www.w3.org/2000/svg">
<g id="AI Icons-9">
<path id="Vector" fill-rule="evenodd" clip-rule="evenodd" d="M13.45 7.0175L14.55 7.3375C15.57 7.6275 16.35 8.4075 16.64 9.4275L16.96 10.5275C16.99 10.6175 17.06 10.6775 17.15 10.6775C17.24 10.6775 17.32 10.6175 17.34 10.5275L17.66 9.4275C17.95 8.4075 18.73 7.6275 19.75 7.3375L20.85 7.0175C20.94 6.9975 21 6.9175 21 6.8275C21 6.7375 20.94 6.6575 20.85 6.6375L19.75 6.3175C18.73 6.0275 17.95 5.2475 17.66 4.2275L17.34 3.1275C17.29 2.9575 17 2.9575 16.95 3.1275L16.63 4.2275C16.34 5.2475 15.56 6.0275 14.54 6.3175L13.44 6.6375C13.35 6.6575 13.29 6.7375 13.29 6.8275C13.29 6.9175 13.35 6.9975 13.44 7.0175H13.45ZM3.26 11.2575C4.06 11.5275 4.28 11.7475 4.55 12.5475C4.67 12.8975 5.15 12.8975 5.27 12.5475C5.54 11.7475 5.76 11.5275 6.56 11.2575C6.91 11.1375 6.91 10.6575 6.56 10.5375C5.76 10.2675 5.54 10.0475 5.27 9.2475C5.15 8.8975 4.67 8.8975 4.55 9.2475C4.28 10.0575 4.06 10.2675 3.26 10.5375C3.09 10.5975 3 10.7475 3 10.8975C3 11.0475 3.09 11.1975 3.26 11.2575ZM16.42 17.6875C16.5 17.8675 16.68 17.9875 16.87 18.0075V18.0175C19.36 18.3075 21 18.8075 21 19.3775C21 20.2675 16.97 20.9975 12 20.9975C7.03 20.9975 3 20.2775 3 19.3775C3 18.8175 4.56 18.3275 6.93 18.0375C7.12 18.0075 7.29 17.8975 7.38 17.7175L9.42 13.5175L11.39 9.4575C11.6 9.0275 12.21 9.0275 12.42 9.4575L14.39 13.5175L16.42 17.6875Z" fill="white"/>
</g>
</svg>
