<svg width="21" height="20" viewBox="0 0 21 20" fill="none" xmlns="http://www.w3.org/2000/svg">
<g id="Attachment">
<g id="Group 14314">
<path id="Combined Shape" opacity="0.3" fill-rule="evenodd" clip-rule="evenodd" d="M3.16421 12.0467C2.38316 12.8278 2.38317 14.0941 3.16421 14.8752L5.87424 17.5852C6.65529 18.3662 7.92162 18.3662 8.70267 17.5852L11.4127 14.8752C12.1937 14.0941 12.1937 12.8278 11.4127 12.0467L10.75 11.384L8.67331 13.4607C8.29096 13.8431 7.67105 13.8431 7.2887 13.4607C6.90635 13.0784 6.90635 12.4585 7.2887 12.0761L9.36539 9.99942L8.70267 9.3367C7.92162 8.55565 6.65529 8.55565 5.87424 9.3367L3.16421 12.0467Z" fill="#FF6A55"/>
<path id="Combined Shape Copy" fill-rule="evenodd" clip-rule="evenodd" d="M10.0861 5.12387C9.30504 5.90492 9.30504 7.17125 10.0861 7.9523L10.7489 8.61507L12.8259 6.53799C13.2083 6.15564 13.8282 6.15564 14.2106 6.53799C14.5929 6.92034 14.5929 7.54026 14.2106 7.92261L12.1335 9.99968L12.7961 10.6623C13.5772 11.4434 14.8435 11.4434 15.6245 10.6623L18.3346 7.9523C19.1156 7.17125 19.1156 5.90492 18.3346 5.12387L15.6245 2.41385C14.8435 1.6328 13.5772 1.6328 12.7961 2.41385L10.0861 5.12387Z" fill="#FF6A55"/>
</g>
</g>
</svg>
