<svg width="21" height="20" viewBox="0 0 21 20" fill="none" xmlns="http://www.w3.org/2000/svg">
<g id="Check circle">
<path id="Icon" fill-rule="evenodd" clip-rule="evenodd" d="M10.25 18C14.6683 18 18.25 14.4183 18.25 10C18.25 5.58172 14.6683 2 10.25 2C5.83172 2 2.25 5.58172 2.25 10C2.25 14.4183 5.83172 18 10.25 18ZM13.9571 8.70711C14.3476 8.31658 14.3476 7.68342 13.9571 7.29289C13.5666 6.90237 12.9334 6.90237 12.5429 7.29289L9.25 10.5858L7.95711 9.29289C7.56658 8.90237 6.93342 8.90237 6.54289 9.29289C6.15237 9.68342 6.15237 10.3166 6.54289 10.7071L8.54289 12.7071C8.93342 13.0976 9.56658 13.0976 9.95711 12.7071L13.9571 8.70711Z" fill="#5D5FEF"/>
</g>
</svg>
