<svg xmlns="http://www.w3.org/2000/svg" width="24" height="24" viewBox="0 0 24 24" fill="none">
    <rect width="24" height="24" fill="white"/>
    <path d="M6 12H11" stroke="#C0C0C0" stroke-width="2" stroke-linecap="round" stroke-linejoin="round"/>
    <path d="M22 13.5279V10.7981C22 7.76955 22 6.2553 21.0143 5.67529C20.0285 5.09527 18.7048 5.83066 16.0574 7.30143L13.9061 8.49663C13.4555 8.74695 13.2302 8.87211 12.9834 8.93606C12.7367 9 12.4789 9 11.9635 9H4.61512C4.04321 9 3.75726 9 3.52157 9.05807C2.79962 9.23593 2.23593 9.79962 2.05807 10.5216C2 10.7573 2 11.0432 2 11.6151V11.6852C2 12.0421 2 12.2205 2.02609 12.3805C2.12726 13.0006 2.51398 13.5372 3.07032 13.8293C3.2138 13.9046 3.38308 13.961 3.72164 14.0739C3.9775 14.1592 4.10543 14.2018 4.22021 14.2571C4.66253 14.4702 5.01101 14.8386 5.19926 15.2921C5.24811 15.4097 5.28359 15.5398 5.35455 15.8L6.21974 18.9724C6.38521 19.5791 6.93628 20 7.56516 20C8.51702 20 9.18916 19.0675 8.88815 18.1644L8.75 17.75C8.38103 16.6431 9.20492 15.5 10.3717 15.5H12.273C12.5264 15.5 12.6532 15.5 12.7775 15.5156C12.9188 15.5334 13.0577 15.5662 13.192 15.6135C13.3102 15.6551 13.4236 15.7118 13.6503 15.8251L16.2111 17.1056C18.8057 18.4028 20.1029 19.0515 21.0515 18.4652C22 17.879 22 16.4286 22 13.5279Z" stroke="#C0C0C0" stroke-width="2" stroke-linecap="round" stroke-linejoin="round"/>
  </svg>