<svg xmlns="http://www.w3.org/2000/svg" width="21" height="20" viewBox="0 0 21 20" fill="none">
    <path
        d="M17.75 14.9999L10.9269 18.0324C10.496 18.2239 10.004 18.2239 9.5731 18.0324L2.75 14.9999M17.75 10.8332L10.9269 13.8657C10.496 14.0572 10.004 14.0572 9.5731 13.8657L2.75 10.8332M3.40738 6.57858L9.50464 9.62721C9.97386 9.86182 10.5261 9.86182 10.9954 9.62721L17.0926 6.57858C17.7068 6.27148 17.7068 5.39497 17.0926 5.08787L10.9954 2.03924C10.5261 1.80463 9.97386 1.80463 9.50464 2.03924L3.40738 5.08787C2.79317 5.39497 2.79317 6.27148 3.40738 6.57858Z"
        stroke="#333333" stroke-width="1.5" stroke-linecap="round" stroke-linejoin="round" />
</svg>