<svg width="19" height="19" viewBox="0 0 19 19" fill="none" xmlns="http://www.w3.org/2000/svg">
<g id="ri:linkedin-fill">
<rect width="17.7778" height="17.7778" transform="translate(0.304688 0.555664)" fill="#F8F8F8"/>
<path id="Vector" d="M5.44734 4.25957C5.44714 4.65248 5.29087 5.02922 5.0129 5.30691C4.73493 5.58461 4.35803 5.7405 3.96512 5.74031C3.5722 5.74011 3.19546 5.58384 2.91777 5.30587C2.64007 5.0279 2.48418 4.651 2.48438 4.25808C2.48457 3.86517 2.64084 3.48843 2.91881 3.21074C3.19679 2.93304 3.57368 2.77715 3.9666 2.77734C4.35951 2.77754 4.73625 2.93381 5.01395 3.21178C5.29164 3.48975 5.44754 3.86665 5.44734 4.25957ZM5.49178 6.83734H2.52882V16.1114H5.49178V6.83734ZM10.1733 6.83734H7.22512V16.1114H10.1436V11.2448C10.1436 8.53364 13.677 8.28179 13.677 11.2448V16.1114H16.6029V10.2373C16.6029 5.66697 11.3733 5.83734 10.1436 8.08179L10.1733 6.83734Z" fill="#28C0E1"/>
</g>
</svg>
