<svg width="23" height="22" viewBox="0 0 23 22" fill="none" xmlns="http://www.w3.org/2000/svg">
<path d="M11.5 12.5V9.5L21.3883 9.5C21.4619 9.98929 21.5 10.4902 21.5 11C21.5 16.5228 17.0228 21 11.5 21C5.97715 21 1.5 16.5228 1.5 11C1.5 5.47715 5.97715 1 11.5 1C14.2614 1 16.7614 2.11929 18.5711 3.92893L16.4497 6.05025C15.183 4.7835 13.433 4 11.5 4C7.63401 4 4.5 7.13401 4.5 11C4.5 14.866 7.63401 18 11.5 18C14.8511 18 17.6522 15.6452 18.3389 12.5H11.5Z" stroke="#FCFCFC" stroke-width="1.5" stroke-linecap="round" stroke-linejoin="round"/>
</svg>
