<svg xmlns="http://www.w3.org/2000/svg" width="201" height="200" viewBox="0 0 201 200" fill="none">
    <path d="M38.2149 129.156C38.2133 129.208 38.2083 129.26 38.2001 129.311C38.1607 130.105 38.1393 130.589 38.1288 130.872C38.0962 131.743 38.1665 130.693 38.1288 130.872C38.1234 130.897 38.1159 130.947 38.1055 131.031H36.7774C35.7885 131.093 34.8062 131.234 33.8399 131.453C31.793 131.875 29.668 132.563 27.3399 133.125C26.4024 133.328 25.4024 133.735 24.0274 134.047C23.2492 134.226 22.4497 134.294 21.6524 134.25C20.5569 134.189 19.5127 133.766 18.6837 133.047C18.4962 132.86 18.293 132.656 18.1211 132.453C17.892 132.137 17.6981 131.796 17.543 131.438C17.3755 130.983 17.3063 130.499 17.3399 130.016C17.3686 129.575 17.4855 129.145 17.6836 128.75C18.1698 127.879 18.8824 127.156 19.7461 126.656C20.8396 126.038 21.9845 125.515 23.168 125.094L26.0118 123.969C26.4578 123.828 26.8573 123.569 27.168 123.219C27.2302 123.135 27.2637 123.034 27.2637 122.93C27.2637 122.826 27.2302 122.724 27.168 122.641C27.0365 122.532 26.8695 122.477 26.6993 122.485C25.8751 122.588 25.0602 122.755 24.2618 122.985L23.3712 123.156C22.5808 123.286 21.7815 123.354 20.9805 123.36C20.0265 123.378 19.0792 123.197 18.1993 122.828C17.1833 122.383 16.3583 121.591 15.8711 120.594C15.5459 119.976 15.4307 119.268 15.543 118.578C15.6794 117.918 16.0115 117.313 16.4961 116.844C17.1685 116.176 17.9646 115.645 18.8399 115.281C20.2627 114.757 21.7259 114.349 23.2149 114.063L30.793 112.5L31.7461 112.188L32.2774 112.031C32.5643 111.932 32.8415 111.807 33.1055 111.656C33.3555 111.531 33.6211 111.235 33.4493 110.938C33.3996 110.796 33.3213 110.666 33.2191 110.556C33.117 110.445 32.9932 110.357 32.8555 110.297C32.509 110.126 32.1319 110.025 31.7461 110C31.0095 109.919 30.2683 109.887 29.5274 109.906C27.928 109.954 26.3321 110.085 24.7462 110.297C21.543 110.526 18.3587 110.97 15.2149 111.625C13.2774 111.953 13.2618 111.328 14.6993 110.063C17.1675 108.193 20.1387 107.105 23.2305 106.938C24.793 106.797 26.5586 106.563 28.3555 106.5C29.2714 106.446 30.1897 106.446 31.1055 106.5H31.8243H32.2305C32.4357 106.516 32.6394 106.548 32.8399 106.594C33.615 106.754 34.3698 107 35.0899 107.328C35.714 107.57 36.2739 107.953 36.7264 108.446C37.1789 108.939 37.5118 109.53 37.6993 110.172L37.918 111.11C37.918 111.422 37.918 111.75 37.8086 112.063C37.631 112.65 37.3148 113.186 36.8868 113.625C35.7096 114.566 34.3621 115.272 32.918 115.703C32.0586 115.985 31.2149 116.219 30.3712 116.438C27.043 117.188 23.6837 117.719 20.9024 118.672C20.4659 118.804 20.0436 118.977 19.6413 119.19C19.6459 119.195 19.6506 119.199 19.6554 119.204C19.7526 119.296 19.869 119.365 19.9961 119.406C20.5461 119.58 21.1248 119.644 21.6993 119.594H22.3399C22.6128 119.567 22.884 119.525 23.1524 119.469C23.9452 119.269 24.7274 119.029 25.4961 118.75C27.2305 118.266 29.043 117.688 30.5274 117.36C31.6403 117.106 32.7767 116.97 33.918 116.953C34.6659 116.946 35.4116 117.036 36.1368 117.219C36.5822 117.329 36.9979 117.536 37.3544 117.825C37.7109 118.114 37.9993 118.478 38.1993 118.891C38.4125 119.382 38.4882 119.922 38.418 120.453C38.3431 120.872 38.1836 121.271 37.9493 121.625C36.779 123.292 35.1739 124.605 33.3086 125.422C31.8555 126.11 30.1837 126.813 28.418 127.5L25.793 128.5L24.1524 129.156C23.4623 129.415 22.7999 129.741 22.1747 130.129C22.7145 130.149 23.255 130.058 23.7618 129.86L25.3243 129.391L27.0586 128.875C29.1993 128.328 31.418 127.61 33.793 127.188C35.335 126.878 36.9111 126.773 38.4805 126.875C39.165 126.975 39.797 127.299 40.2774 127.797C40.6938 128.194 41.0236 128.673 41.2461 129.203C41.4864 129.809 41.5408 130.473 41.4024 131.11C41.2557 131.693 40.9656 132.23 40.5586 132.672C39.3006 133.822 37.7483 134.601 36.0743 134.922C35.3399 135.141 34.6055 135.25 33.8868 135.391C33.2493 135.49 32.618 135.625 31.9961 135.797C30.1284 136.299 28.3588 137.112 26.7618 138.203C26.0502 138.679 25.4439 139.296 24.9805 140.016C24.8107 140.323 24.6894 140.656 24.6211 141C24.6117 141.062 24.6068 141.124 24.6064 141.186C24.6584 141.185 24.7103 141.181 24.7618 141.172C25.1818 141.139 25.5963 141.055 25.9961 140.922C26.9511 140.637 27.8856 140.287 28.793 139.875C30.7149 139.063 32.4961 138.078 34.6836 137.281C36.2842 136.775 37.9117 136.357 39.5586 136.031C40.4457 135.856 41.3436 135.741 42.2461 135.688C42.77 135.672 43.294 135.714 43.8086 135.813C44.5919 135.939 45.3055 136.337 45.8243 136.938C46.0162 137.177 46.1936 137.427 46.3555 137.688C46.5073 137.975 46.6378 138.272 46.7462 138.578C46.9805 139.331 46.9805 140.138 46.7462 140.891C46.2653 142.015 45.4389 142.956 44.3868 143.578C42.8983 144.482 41.329 145.246 39.6993 145.86L35.8399 147.422C31.1524 149.469 30.293 150.016 28.6368 150.031C28.2618 150.031 27.8711 150.156 27.543 150.141C27.2149 150.125 26.8555 149.516 27.3399 148.406C28.1461 146.865 29.3698 145.582 30.8712 144.703C33.496 143.205 36.2212 141.889 39.0274 140.766C40.1378 140.328 41.1879 139.75 42.1524 139.047C42.2461 139.047 42.2305 138.953 42.2774 138.906C42.418 139.03 42.5697 139.139 42.7305 139.235C42.7495 139.251 42.7686 139.266 42.7878 139.28C43.1649 139.566 43.577 139.592 43.3243 139.563C43.1593 139.572 42.9963 139.603 42.8399 139.656C42.8399 139.656 42.5118 139.656 42.3711 139.797C42.2608 139.836 42.1557 139.888 42.0587 139.953C42.04 139.944 42.0235 139.931 42.0101 139.914C41.9966 139.898 41.9866 139.88 41.9805 139.86C42.2988 139.631 42.5654 139.44 42.7878 139.28C42.7686 139.266 42.7495 139.251 42.7305 139.235C42.5697 139.139 42.418 139.03 42.2774 138.906C42.2305 138.953 42.2461 139.047 42.1524 139.047C41.1879 139.75 40.1378 140.328 39.0274 140.766C36.2212 141.889 33.496 143.205 30.8712 144.703C29.3698 145.582 28.1461 146.865 27.3399 148.406C26.8555 149.516 27.2149 150.125 27.543 150.141C27.8711 150.156 28.2618 150.031 28.6368 150.031C30.293 150.016 31.1524 149.469 35.8399 147.422L39.6993 145.86C41.329 145.246 42.8983 144.482 44.3868 143.578C45.4389 142.956 46.2653 142.015 46.7462 140.891C46.9805 140.138 46.9805 139.331 46.7462 138.578C46.6378 138.272 46.5073 137.975 46.3555 137.688C46.1936 137.427 46.0162 137.177 45.8243 136.938C45.3055 136.337 44.5919 135.939 43.8086 135.813C43.294 135.714 42.77 135.672 42.2461 135.688C41.3436 135.741 40.4457 135.856 39.5586 136.031C37.9117 136.357 36.2842 136.775 34.6836 137.281C32.4961 138.078 30.7149 139.063 28.793 139.875C27.8856 140.287 26.9511 140.637 25.9961 140.922C25.5963 141.055 25.1818 141.139 24.7618 141.172C24.7103 141.181 24.6584 141.185 24.6064 141.186C24.6059 141.255 24.6108 141.323 24.6211 141.391H24.4961C24.293 141.485 24.2774 141.485 24.2149 141.547C24.1524 141.61 24.2149 141.547 24.3086 141.391C24.3485 141.322 24.38 141.248 24.4024 141.172C24.4699 141.183 24.5382 141.188 24.6064 141.186C24.6068 141.124 24.6117 141.062 24.6211 141C24.6894 140.656 24.8107 140.323 24.9805 140.016C25.4439 139.296 26.0502 138.679 26.7618 138.203C28.3588 137.112 30.1284 136.299 31.9961 135.797C32.618 135.625 33.2493 135.49 33.8868 135.391C34.6055 135.25 35.3399 135.141 36.0743 134.922C37.7483 134.601 39.3006 133.822 40.5586 132.672C40.9656 132.23 41.2557 131.693 41.4024 131.11C41.5408 130.473 41.4864 129.809 41.2461 129.203C41.0236 128.673 40.6938 128.194 40.2774 127.797C39.797 127.299 39.165 126.975 38.4805 126.875C36.9111 126.773 35.335 126.878 33.793 127.188C31.418 127.61 29.1993 128.328 27.0586 128.875L25.3243 129.391L23.7618 129.86C23.255 130.058 22.7145 130.149 22.1747 130.129C21.9922 130.242 21.8128 130.361 21.6368 130.485C21.6368 130.485 21.4961 130.578 21.4961 130.594C21.4961 130.61 21.4961 130.703 21.2461 130.485C21.1342 130.412 21.0134 130.354 20.8868 130.313H20.7305C21.7305 129.688 21.3868 130.047 21.5899 130.063C21.7837 130.099 21.9792 130.121 22.1747 130.129C22.7999 129.741 23.4623 129.415 24.1524 129.156L25.793 128.5L28.418 127.5C30.1837 126.813 31.8555 126.11 33.3086 125.422C35.1739 124.605 36.779 123.292 37.9493 121.625C38.1836 121.271 38.3431 120.872 38.418 120.453C38.4882 119.922 38.4125 119.382 38.1993 118.891C37.9993 118.478 37.7109 118.114 37.3544 117.825C36.9979 117.536 36.5822 117.329 36.1368 117.219C35.4116 117.036 34.6659 116.946 33.918 116.953C32.7767 116.97 31.6403 117.106 30.5274 117.36C29.043 117.688 27.2305 118.266 25.4961 118.75C24.7274 119.029 23.9452 119.269 23.1524 119.469C22.884 119.525 22.6128 119.567 22.3399 119.594H21.6993C21.1248 119.644 20.5461 119.58 19.9961 119.406C19.869 119.365 19.7526 119.296 19.6554 119.204C19.6506 119.199 19.6459 119.195 19.6413 119.19C19.5395 119.244 19.439 119.301 19.3399 119.36H19.2618C19.1437 119.263 19.0121 119.184 18.8712 119.125L18.6837 119.031H18.8399C18.9961 119.031 19.5118 118.75 19.4336 118.875C19.48 118.994 19.5508 119.101 19.6413 119.19C20.0436 118.977 20.4659 118.804 20.9024 118.672C23.6837 117.719 27.043 117.188 30.3712 116.438C31.2149 116.219 32.0586 115.985 32.918 115.703C34.3621 115.272 35.7096 114.566 36.8868 113.625C37.3148 113.186 37.631 112.65 37.8086 112.063C37.918 111.75 37.918 111.422 37.918 111.11L37.6993 110.172C37.5118 109.53 37.1789 108.939 36.7264 108.446C36.2739 107.953 35.714 107.57 35.0899 107.328C34.3698 107 33.615 106.754 32.8399 106.594C32.6394 106.548 32.4357 106.516 32.2305 106.5H31.8243H31.1055C30.1897 106.446 29.2714 106.446 28.3555 106.5C26.5586 106.563 24.793 106.797 23.2305 106.938C20.1387 107.105 17.1675 108.193 14.6993 110.063C13.2618 111.328 13.2774 111.953 15.2149 111.625C18.3587 110.97 21.543 110.526 24.7462 110.297C26.3321 110.085 27.928 109.954 29.5274 109.906C30.2683 109.887 31.0095 109.919 31.7461 110C32.1319 110.025 32.509 110.126 32.8555 110.297C32.9932 110.357 33.117 110.445 33.2191 110.556C33.3213 110.666 33.3996 110.796 33.4493 110.938C33.6211 111.235 33.3555 111.531 33.1055 111.656C32.8415 111.807 32.5643 111.932 32.2774 112.031L31.7461 112.188L30.793 112.5L23.2149 114.063C21.7259 114.349 20.2627 114.757 18.8399 115.281C17.9646 115.645 17.1685 116.176 16.4961 116.844C16.0115 117.313 15.6794 117.918 15.543 118.578C15.4307 119.268 15.5459 119.976 15.8711 120.594C16.3583 121.591 17.1833 122.383 18.1993 122.828C19.0792 123.197 20.0265 123.378 20.9805 123.36C21.7815 123.354 22.5808 123.286 23.3712 123.156L24.2618 122.985C25.0602 122.755 25.8751 122.588 26.6993 122.485C26.8695 122.477 27.0365 122.532 27.168 122.641C27.2302 122.724 27.2637 122.826 27.2637 122.93C27.2637 123.034 27.2302 123.135 27.168 123.219C26.8573 123.569 26.4578 123.828 26.0118 123.969L23.168 125.094C21.9845 125.515 20.8396 126.038 19.7461 126.656C18.8824 127.156 18.1698 127.879 17.6836 128.75C17.4855 129.145 17.3686 129.575 17.3399 130.016C17.3063 130.499 17.3755 130.983 17.543 131.438C17.6981 131.796 17.892 132.137 18.1211 132.453C18.293 132.656 18.4962 132.86 18.6837 133.047C19.5127 133.766 20.5569 134.189 21.6524 134.25C22.4497 134.294 23.2492 134.226 24.0274 134.047C25.4024 133.735 26.4024 133.328 27.3399 133.125C29.668 132.563 31.793 131.875 33.8399 131.453C34.8062 131.234 35.7885 131.093 36.7774 131.031H38.1055C38.1159 130.947 38.1234 130.897 38.1288 130.872C38.1393 130.589 38.1607 130.105 38.2001 129.311C38.2048 129.217 38.2097 129.119 38.2149 129.016V129.156Z" fill="#231F20"/>
    <path d="M180.342 41.3598C180.456 41.2813 180.551 41.1802 180.624 41.063C180.642 41.0355 180.654 41.0038 180.657 40.9708C180.661 40.9378 180.656 40.9044 180.644 40.8735C180.632 40.8427 180.612 40.8153 180.587 40.7939C180.561 40.7724 180.531 40.7575 180.499 40.7505C180.358 40.6963 180.202 40.6963 180.061 40.7505L179.858 40.8286L179.327 41.1411C178.932 41.4019 178.551 41.6836 178.186 41.9848C176.62 43.3073 175.196 44.7892 173.936 46.4067C172.562 48.3026 171.03 50.0797 169.358 51.7192C168.598 52.4633 167.715 53.0711 166.749 53.5161C166.393 53.6446 166.027 53.7439 165.655 53.813C165.179 53.8897 164.694 53.8897 164.217 53.813C163.724 53.6514 163.264 53.4027 162.858 53.0786C162.371 52.6559 161.995 52.1199 161.763 51.5177C161.532 50.9156 161.451 50.2658 161.53 49.6255C161.604 49.008 161.762 48.4035 161.999 47.8286C162.427 46.9361 162.951 46.0927 163.561 45.313C164.68 43.9157 165.885 42.5901 167.171 41.3442C167.78 40.7192 168.342 40.2192 168.858 39.6411C169.374 39.063 169.967 38.4067 170.421 37.7817C171.472 36.5879 172.428 35.3131 173.28 33.9692C173.659 33.3822 173.968 32.7529 174.202 32.0942C174.268 31.8755 174.31 31.6502 174.327 31.4223C174.327 31.2505 174.327 31.2817 174.327 31.2505H174.967C174.967 31.2505 174.967 31.2505 174.967 31.3755C174.952 31.4581 174.952 31.5429 174.967 31.6255H174.858H174.639C174.22 31.8092 173.827 32.0455 173.467 32.3286C172.609 32.9932 171.804 33.7246 171.061 34.5161C169.499 36.0786 167.936 37.8755 166.374 39.6255L163.858 42.5317C162.886 43.665 161.842 44.7349 160.733 45.7348C160.104 46.3515 159.361 46.8398 158.546 47.1723C158.186 47.308 157.805 47.3819 157.421 47.3911C157.014 47.333 156.616 47.2282 156.233 47.0786C155.46 46.7941 154.816 46.239 154.421 45.5161C154.075 44.7755 153.96 43.9477 154.092 43.1411C154.281 41.9963 154.65 40.8887 155.186 39.8598C155.639 38.938 155.999 38.2973 156.452 37.5473C157.311 36.1098 158.233 34.7505 159.139 33.4223C160.046 32.0942 160.952 30.7661 161.78 29.4692C162.171 28.813 162.592 28.1723 162.936 27.5473C163.258 27.0105 163.505 26.4323 163.671 25.8286C163.874 25.3598 163.749 25.0786 164.014 24.8598C164.28 24.6411 164.983 24.6567 165.577 25.7505C166.055 27.1381 166.087 28.6402 165.671 30.0473C165.198 31.7742 164.443 33.4109 163.436 34.8911L160.733 38.9692L159.499 40.938C159.03 41.7505 159.014 41.7973 159.014 41.7817C159.014 41.7661 159.014 41.7817 159.014 41.7817C159.014 41.7817 159.014 41.7817 159.233 41.5942C161.389 39.3598 163.514 36.7661 165.78 34.2817C166.936 32.9871 168.162 31.7561 169.452 30.5942C170.154 29.9569 170.907 29.3769 171.702 28.8598C172.192 28.5381 172.716 28.2709 173.264 28.063C174.037 27.7518 174.884 27.6705 175.702 27.8286C176.017 27.9279 176.325 28.048 176.624 28.188L176.921 28.3442L177.155 28.6255C177.78 29.3963 178.102 30.3685 178.061 31.3598C178.033 32.0707 177.891 32.7725 177.639 33.438C177.23 34.5019 176.706 35.5183 176.077 36.4692C174.928 38.2221 173.664 39.8976 172.296 41.4848C171.671 42.2348 170.842 43.1411 170.171 43.813C169.499 44.4848 168.78 45.2192 168.139 45.938C167.511 46.6132 166.926 47.3282 166.389 48.0786C165.98 48.6152 165.678 49.2251 165.499 49.8755C165.499 49.9536 165.499 49.9536 165.499 49.9848C165.499 50.0161 165.733 49.7505 165.499 49.9848C165.499 49.9848 165.311 50.2505 165.327 50.2192C165.327 50.2192 165.327 50.3755 165.327 50.2192C165.343 50.0895 165.343 49.9583 165.327 49.8286C166.077 49.472 166.751 48.9732 167.311 48.3598C168.798 46.7657 170.195 45.0913 171.499 43.3442C172.982 41.4815 174.693 39.8122 176.592 38.3755C177.091 37.9985 177.612 37.654 178.155 37.3442C178.886 36.9189 179.676 36.603 180.499 36.4067C181.26 36.2022 182.055 36.1564 182.834 36.2719C183.614 36.3875 184.361 36.6621 185.03 37.0786C185.407 37.3392 185.716 37.6868 185.931 38.092C186.146 38.4972 186.26 38.9481 186.264 39.4067C186.25 40.3489 185.974 41.2686 185.467 42.063C185.201 42.5016 184.909 42.9242 184.592 43.3286L184.108 43.9536L183.686 44.4067C183.155 45.0161 182.686 45.4848 182.124 45.9692C180.077 47.938 177.936 49.7192 175.874 51.5161C174.323 52.7175 172.904 54.0792 171.639 55.5786C171.392 55.9278 171.177 56.2992 170.999 56.688C170.934 56.8236 170.882 56.9648 170.842 57.1098C170.749 57.2036 171.046 57.1098 170.546 57.1098C170.405 57.1098 170.374 57.1098 170.264 57.1098C170.155 57.1098 170.092 57.2036 170.124 57.1098C170.193 57.0474 170.242 56.9658 170.264 56.8755C170.264 56.8755 170.264 56.7348 170.358 56.5161C170.452 56.2973 170.358 56.5161 170.358 56.438C170.493 56.4488 170.629 56.4488 170.764 56.438C170.97 56.391 171.174 56.3336 171.374 56.2661L171.921 56.0786C172.278 55.8607 172.617 55.6151 172.936 55.3442L174.108 54.3598L176.467 52.313C178.03 50.938 179.592 49.5786 181.374 48.2973C182.052 47.7806 182.762 47.3057 183.499 46.8755C184.306 46.3491 185.2 45.9683 186.139 45.7505C186.877 45.5851 187.651 45.714 188.296 46.1098C188.926 46.5538 189.358 47.2267 189.499 47.9848C189.574 48.2495 189.616 48.5224 189.624 48.7973C189.64 48.9427 189.64 49.0895 189.624 49.2348C189.64 49.4429 189.64 49.6518 189.624 49.8598C189.462 50.4105 189.226 50.9363 188.921 51.4223C187.987 52.8125 186.942 54.1241 185.796 55.3442C184.686 56.5317 183.561 57.6723 182.452 58.813L179.592 61.813C178.397 63.1219 177.135 64.3684 175.811 65.5473C175.204 66.1196 174.479 66.5516 173.686 66.813C173.39 66.957 173.112 67.1353 172.858 67.3442C172.655 67.4692 172.499 67.4536 172.342 67.1723C172.154 66.7345 172.099 66.2505 172.186 65.7817C172.508 64.1529 173.245 62.635 174.327 61.3755C176.186 59.0317 178.217 56.938 180.217 54.8286L183.186 51.7036C183.676 51.1932 184.129 50.6723 184.546 50.1411C184.906 49.725 185.225 49.275 185.499 48.7973V48.7192L185.733 48.8286C186.014 48.9692 186.499 49.0317 186.671 49.1098L187.014 49.188H185.452C185.444 49.1205 185.444 49.0523 185.452 48.9848C185.685 48.927 185.915 48.8539 186.139 48.7661C186.858 48.6411 187.202 48.063 187.03 48.3598C186.989 48.4499 186.957 48.5442 186.936 48.6411C186.936 48.7505 186.936 48.8598 186.936 49.1098C186.905 49.317 186.905 49.5277 186.936 49.7348C186.936 49.7348 186.936 50.1098 186.936 50.063C186.526 50.2056 186.132 50.3943 185.764 50.6255C185.264 50.9223 184.702 51.3286 184.202 51.7192C181.999 53.2817 179.811 55.3442 177.53 57.3598L176.233 58.4848L175.514 59.0786L175.108 59.3911L174.889 59.563L174.546 59.7817C174.119 60.0482 173.663 60.2633 173.186 60.4223C172.818 60.5536 172.442 60.6632 172.061 60.7505C171.55 60.876 171.025 60.9441 170.499 60.9536C170.072 60.9404 169.648 60.8828 169.233 60.7817C168.916 60.6822 168.612 60.5458 168.327 60.3755C167.997 60.1998 167.705 59.9609 167.467 59.6723C166.984 59.1262 166.664 58.4546 166.546 57.7348C166.523 57.501 166.523 57.2656 166.546 57.0317C166.526 56.829 166.526 56.625 166.546 56.4223C166.617 55.8836 166.765 55.3576 166.983 54.8598C167.286 54.1504 167.663 53.4748 168.108 52.8442C168.519 52.2448 168.979 51.6804 169.483 51.1567C169.952 50.6723 170.389 50.2661 170.827 49.8598C172.592 48.2973 174.296 46.8755 175.952 45.4223C176.78 44.7036 177.514 43.9692 178.358 43.2348L179.483 42.1411L180.014 41.5786L180.421 41.1255L180.342 41.3598Z" fill="#231F20"/>
    <path d="M86.0757 89.3909C87.9976 85.3596 90.0601 81.3596 92.3257 77.469C92.9195 76.469 93.3882 75.594 94.1226 74.5002C94.8598 73.4575 95.732 72.517 96.7163 71.7034C98.5156 70.2106 100.445 68.8823 102.482 67.7346C105.357 66.0627 108.248 64.5315 111.201 63.1565C116.419 60.719 121.685 58.469 126.904 56.2502C129.498 55.1096 132.076 53.9377 134.591 52.6877C137.099 51.479 139.499 50.0571 141.763 48.4377C145.546 45.2301 148.995 41.6495 152.06 37.7502C154.091 35.2659 156.029 32.7034 158.013 30.1409C159.029 28.8752 159.998 27.5784 161.138 26.3752C162.279 25.1721 163.341 23.9846 164.513 22.844C165.966 21.4221 166.076 21.8752 165.326 23.5002C164.966 24.2971 164.435 25.4221 163.763 26.7502C163.419 27.4065 163.076 28.1252 162.638 28.844C162.201 29.5627 161.685 30.2971 161.076 31.0471C157.252 36.5153 153.032 41.6958 148.451 46.5471C147.263 47.7502 146.029 48.9065 144.748 50.0315C143.412 51.2066 141.968 52.253 140.435 53.1565C137.508 54.8619 134.482 56.3907 131.373 57.7346C124.076 61.0159 116.513 64.344 109.31 67.9221C105.384 69.7222 101.708 72.0225 98.3726 74.7659C97.6345 75.4241 96.9974 76.1875 96.482 77.0315L94.8726 79.8284C93.7632 81.7346 92.7163 83.6877 91.7476 85.6565C89.232 90.5159 86.9663 95.5159 84.7163 100.516C82.9827 104.242 81.5561 108.104 80.4507 112.063C79.9663 114.031 79.357 116.156 80.3257 117.172C81.2945 118.188 83.2007 118.266 84.9038 117.406C87.5845 115.917 89.9637 113.94 91.9194 111.578C93.9692 109.272 95.7659 106.752 97.2788 104.063C97.9507 102.891 98.5288 101.688 99.107 100.453C100.169 98.1721 100.669 96.6096 101.201 95.5471C101.546 94.7575 102.039 94.0414 102.654 93.4377C102.856 93.2175 103.075 93.0137 103.31 92.8284C103.654 92.6252 103.826 93.0784 103.873 94.094C103.861 95.619 103.608 97.1325 103.123 98.5784C101.221 104.377 98.1046 109.704 93.982 114.203C91.8395 116.662 89.2859 118.729 86.4351 120.313C85.5839 120.741 84.6804 121.056 83.7476 121.25C83.2342 121.359 82.7097 121.406 82.1851 121.391H81.3257C81.0296 121.324 80.7374 121.241 80.4507 121.141C79.882 120.966 79.3518 120.685 78.8882 120.313C78.3592 119.967 77.9027 119.521 77.5445 119C76.8517 117.974 76.5066 116.753 76.5601 115.516C76.5816 114.184 76.7493 112.858 77.0601 111.563C77.3413 110.422 77.6538 109.297 78.0132 108.188C78.7163 105.985 79.5757 103.828 80.4195 101.719C82.2007 97.5159 84.0288 93.4846 85.9351 89.3596L86.0757 89.3909Z" fill="#231F20"/>
    <path d="M155.746 88.1251C158.356 84.2969 161.09 80.5782 163.871 76.9219C164.887 75.5782 165.824 74.1875 166.856 72.875C168.668 70.5625 170.496 68.1875 172.434 65.9532C174.371 63.7188 176.34 61.5001 178.356 59.3282C180.137 57.4063 181.934 55.4532 183.746 53.5625C185.98 50.9491 188.683 48.7763 191.715 47.1563C192.731 46.6875 192.809 47.2969 192.371 48.2657C191.732 49.6162 190.859 50.8434 189.793 51.8907C185.027 56.3907 180.59 61.4844 176.012 66.5157C173.246 69.4844 170.856 72.9844 168.309 76.3282C165.527 79.9844 162.777 83.6719 160.168 87.4375C158.606 89.75 157.043 92.125 155.481 94.5C153.246 98.1407 150.965 101.797 148.996 105.563C147.434 108.484 146.277 111.484 145.074 114.484C144.824 115.141 144.59 115.797 144.34 116.469C143.387 118.938 142.871 119.594 141.949 119.938C141.763 120.026 141.569 120.099 141.371 120.156C140.871 120.281 140.559 119 141.027 117.031C141.767 114.05 142.777 111.142 144.043 108.344C145.324 105.516 146.793 102.734 148.34 100.016C150.652 95.9844 153.027 92.0157 155.652 88.0938L155.746 88.1251Z" fill="#231F20"/>
    <path d="M53.2949 102.703C49.5762 103.516 45.8522 104.292 42.1231 105.031C40.7481 105.297 39.4043 105.641 38.0449 105.891C33.2324 106.75 28.4043 107.453 23.5762 108.281C21.4356 108.609 19.2949 109 17.1699 109.359C15.8106 109.609 14.4356 109.813 13.0606 110C11.6658 110.078 10.2678 110.078 8.87306 110C8.01369 110 8.10744 109.719 8.79494 109.328C9.12306 109.109 9.63869 108.953 10.2168 108.563L11.1543 107.984C11.3106 107.875 11.4981 107.813 11.6699 107.672L12.2324 107.547C17.7168 106.547 23.2481 105.734 28.8418 104.922C32.2012 104.469 35.6231 103.609 38.9981 102.891C42.7168 102.089 46.4251 101.245 50.1231 100.359L56.9512 98.6563C60.3887 97.7656 63.8574 96.9219 67.2793 95.9844C69.9356 95.2656 72.4981 94.4219 75.1856 93.7188C75.7793 93.5625 76.3574 93.3906 76.9824 93.2813C79.2637 92.8594 80.3574 93.2813 80.7012 94.2813C80.7961 94.4598 80.8495 94.6574 80.8574 94.8594C80.8574 95.1094 80.5762 95.2188 80.2637 95.5C79.8115 95.8529 79.2709 96.0745 78.7012 96.1406C76.5293 96.6406 74.1543 97.3906 71.7637 98.0469L64.4668 100C60.7949 100.969 57.0449 101.813 53.3106 102.719L53.2949 102.703Z" fill="#231F20"/>
    <path d="M145.546 135.078C145.546 134.906 145.655 134.703 145.718 134.516C145.78 134.328 145.718 134.047 145.718 134.031C145.718 134.016 145.718 134.031 145.608 133.656C145.441 133.312 145.253 132.978 145.046 132.656C144.608 131.969 144.093 131.25 143.483 130.563C142.405 129.141 141.233 127.766 140.03 126.406C138.827 125.047 137.905 124.188 136.905 123.047C133.311 119.031 129.514 115.141 125.499 111.359C123.733 109.641 121.983 107.953 120.171 106.422C117.862 104.534 115.412 102.826 112.843 101.313C112.061 100.781 112.202 100.516 113.186 100.25C113.946 100.036 114.741 99.9796 115.523 100.084C116.305 100.189 117.057 100.453 117.733 100.859C120.571 102.559 123.194 104.595 125.546 106.922L128.983 110.156C130.171 111.25 131.28 112.406 132.374 113.594C134.999 116.422 137.968 119.094 140.671 121.969C142.233 123.531 143.608 125.094 145.014 126.828C145.718 127.672 146.405 128.531 147.061 129.422C147.787 130.355 148.416 131.36 148.936 132.422C149.157 132.913 149.274 133.445 149.28 133.984C149.216 135.335 148.852 136.654 148.214 137.846C147.576 139.038 146.681 140.073 145.593 140.875C144.739 141.563 143.805 142.146 142.811 142.609C141.791 143.132 140.685 143.465 139.546 143.594C138.944 143.664 138.335 143.664 137.733 143.594C137.203 143.464 136.681 143.303 136.171 143.109C135.162 142.688 134.198 142.164 133.296 141.547C131.942 140.692 130.647 139.747 129.421 138.719C128.205 137.739 127.042 136.696 125.936 135.594C125.468 135.094 124.999 134.609 124.561 134.031C122.858 132.141 122.874 131.078 122.999 130.281C123.011 130.096 123.042 129.913 123.093 129.734C123.093 129.5 123.452 129.516 123.936 129.734C124.649 129.975 125.319 130.328 125.921 130.781L129.046 133.359C130.077 134.25 131.093 135.156 132.171 135.984C133.249 136.813 134.264 137.625 135.296 138.297C136.203 138.946 137.219 139.427 138.296 139.719C138.468 139.797 138.593 139.719 138.749 139.719C138.905 139.719 139.046 139.719 139.155 139.719C139.274 139.703 139.395 139.703 139.514 139.719C139.7 139.679 139.883 139.627 140.061 139.563C140.877 139.297 141.659 138.935 142.389 138.484C143.799 137.744 144.905 136.533 145.514 135.063L145.546 135.078Z" fill="#231F20"/>
    <path d="M122.06 146.141C123.499 147.253 125.074 148.177 126.747 148.891C127.323 149.086 127.913 149.233 128.513 149.329C129.401 149.579 130.349 149.501 131.185 149.11C132.274 148.531 133.318 147.873 134.31 147.141C135.166 146.505 135.924 145.747 136.56 144.891C137.287 143.798 137.955 142.666 138.56 141.5C138.763 141.141 139.279 141.282 139.732 141.813C140.011 142.146 140.203 142.542 140.293 142.967C140.383 143.392 140.367 143.833 140.247 144.25C139.632 145.838 138.672 147.268 137.435 148.438C136.299 149.562 134.998 150.505 133.576 151.235C132.615 151.846 131.559 152.289 130.451 152.547C129.368 152.767 128.252 152.767 127.169 152.547C125.09 152.026 123.11 151.165 121.31 150C120.216 149.329 119.185 148.594 118.185 147.844C116.622 146.704 115.216 145.438 113.763 144.235C112.638 143.297 111.419 142.469 110.294 141.485C110.03 141.289 109.779 141.075 109.544 140.844C108.685 139.954 108.654 139.438 109.341 138.61C109.497 138.422 109.654 138.219 109.826 138.047C110.095 137.779 110.454 137.618 110.833 137.595C111.213 137.572 111.588 137.688 111.888 137.922C113.933 139.354 115.88 140.92 117.716 142.61C119.117 143.869 120.589 145.048 122.122 146.141H122.06Z" fill="#231F20"/>
    <path d="M109.123 155.344C110.639 156.516 112.273 157.526 113.998 158.36C114.594 158.602 115.204 158.806 115.826 158.969C116.292 159.115 116.776 159.199 117.264 159.219C117.451 159.236 117.639 159.236 117.826 159.219C118.061 159.219 118.389 159 118.654 158.907C119.806 158.476 120.903 157.91 121.92 157.219C122.788 156.601 123.539 155.834 124.139 154.953C124.819 153.833 125.379 152.644 125.811 151.407C125.936 151.078 126.561 151.032 127.17 151.516C127.538 151.816 127.813 152.216 127.959 152.667C128.106 153.119 128.12 153.604 127.998 154.063C127.454 155.788 126.443 157.33 125.076 158.516C123.832 159.663 122.386 160.569 120.811 161.188L119.436 161.75L119.076 161.907L118.592 162.078C118.264 162.188 117.951 162.203 117.623 162.282C116.49 162.372 115.349 162.244 114.264 161.907C112.196 161.187 110.243 160.171 108.467 158.891C107.389 158.172 106.342 157.328 105.342 156.594C103.779 155.391 102.358 154.063 100.889 152.797C99.7638 151.797 98.5294 150.953 97.4513 149.86C97.2013 149.625 96.9513 149.391 96.7325 149.141C95.92 148.157 95.8732 147.578 96.4044 146.969C96.5169 146.808 96.6423 146.656 96.7794 146.516C97.2638 146.11 97.9357 146.219 98.5919 146.719C100.608 148.172 102.545 149.938 104.576 151.641C106.139 152.907 107.608 154.172 109.264 155.282L109.123 155.344Z" fill="#231F20"/>
    <path d="M83.5137 151.735C85.4825 153.532 87.4825 155.328 89.5918 156.953C90.3418 157.578 91.1543 158.047 91.9668 158.641C93.3189 159.645 94.7218 160.578 96.17 161.438C97.5896 162.245 99.1223 162.835 100.717 163.188C102.122 163.533 103.582 163.602 105.014 163.391C106.691 163.085 108.192 162.159 109.217 160.797C109.576 160.375 110.029 160.61 110.248 161.36C110.384 161.925 110.359 162.517 110.177 163.069C109.995 163.621 109.662 164.111 109.217 164.485C108.232 165.286 107.06 165.824 105.811 166.047C104.659 166.279 103.48 166.342 102.311 166.235C101.218 166.152 100.135 165.969 99.0762 165.688C98.5421 165.559 98.0195 165.387 97.5137 165.172C96.9697 164.98 96.4463 164.734 95.9512 164.438C93.6831 163.221 91.4868 161.875 89.3731 160.407C87.1075 158.844 84.9668 157.016 82.8887 155.203C81.5918 154.094 80.3575 152.922 79.1075 151.782C77.2325 150.016 75.42 148.172 73.6387 146.344C72.2325 144.922 70.795 143.594 69.4356 142.11C69.1387 141.766 68.8418 141.453 68.5606 141.094C67.5293 139.766 67.4825 139.078 68.0137 138.422C68.1222 138.253 68.2479 138.096 68.3887 137.953C68.8731 137.532 69.67 137.828 70.3575 138.641C72.6543 141.016 75.1543 143.563 77.7168 146.078C79.6231 147.953 81.5762 149.813 83.5762 151.61L83.5137 151.735Z" fill="#231F20"/>
    <path d="M42.8115 143.906L49.9209 141.437C50.7959 141.141 51.624 140.75 52.5147 140.469C55.6397 139.453 58.7647 138.609 61.8897 137.859C63.3115 137.547 64.7334 137.156 66.1709 136.875C67.1154 136.658 68.0777 136.527 69.0459 136.484C70.0788 136.494 71.0973 136.729 72.0303 137.172C72.624 137.484 72.2959 137.906 71.7022 138.359C71.0315 138.917 70.2705 139.355 69.4522 139.656C66.249 140.062 62.6865 140.969 59.0772 141.75C56.9069 142.344 54.773 143.064 52.6865 143.906L45.5772 146.422L41.1865 147.984L34.5303 150.391C32.8115 151.031 31.1709 151.844 29.374 152.406C28.9748 152.536 28.5677 152.64 28.1553 152.719C26.5928 153 25.9053 152.719 25.624 151.906C25.5408 151.733 25.4829 151.549 25.4522 151.359C25.4404 151.208 25.4639 151.056 25.5208 150.915C25.5778 150.774 25.6666 150.648 25.7803 150.547C26.0811 150.29 26.4249 150.089 26.7959 149.953C29.4678 148.734 32.5928 147.656 35.7178 146.438L42.7647 143.813L42.8115 143.906Z" fill="#231F20"/>
    <path d="M39.764 130.5C38.7138 128.324 37.8259 126.073 37.1077 123.766C36.8265 122.938 36.514 122.11 36.3109 121.25C35.5731 118.183 35.32 115.02 35.5609 111.875C35.6546 110.5 35.8265 109.11 36.0452 107.75C36.1907 106.866 36.3995 105.994 36.6702 105.141C36.9756 104.289 37.4248 103.497 37.9984 102.797C38.3421 102.344 38.8734 102.797 39.3109 103.438C39.8104 104.189 40.0466 105.085 39.9827 105.985C39.1098 109.001 38.6679 112.126 38.6702 115.266C38.7312 117.283 39.0946 119.279 39.7484 121.188C40.3484 123.359 41.1163 125.48 42.0452 127.531C42.6234 128.813 43.264 130.063 43.9515 131.281C44.9857 133.144 46.1831 134.911 47.5296 136.563C48.5843 137.78 49.7624 138.885 51.0452 139.86L51.8577 140.438C52.8265 141.188 52.8734 141.516 52.7952 142.328C52.7952 142.516 52.7952 142.719 52.7952 142.891C52.889 143.5 51.8265 143.844 50.7015 143.36C49.2018 142.628 47.8383 141.645 46.6702 140.453C45.5183 139.311 44.4723 138.066 43.5452 136.735C42.1251 134.749 40.8559 132.66 39.7484 130.485L39.764 130.5Z" fill="#231F20"/>
    <path d="M165.733 58.7503C165.35 57.8735 164.901 57.0273 164.389 56.219L163.624 54.9846L162.702 53.844C162.223 53.2825 161.701 52.76 161.139 52.2815L159.811 50.9065L158.342 49.6565C157.365 48.7883 156.32 47.9994 155.217 47.2972C154.221 46.6897 153.176 46.167 152.092 45.7347C150.67 45.2436 149.295 44.6265 147.983 43.8909C147.577 43.6409 147.78 43.1409 148.342 42.719C148.692 42.4657 149.091 42.2877 149.513 42.1963C149.936 42.1048 150.372 42.102 150.796 42.1878C151.602 42.3274 152.392 42.5472 153.155 42.844C153.905 43.1565 154.717 43.4847 155.405 43.8284C156.158 44.1643 156.88 44.567 157.561 45.0315C158.269 45.4657 158.948 45.9459 159.592 46.469C160.358 47.1253 161.155 47.7347 161.983 48.3284C162.811 48.9222 163.546 49.6722 164.28 50.3597C165.014 51.0472 165.842 52.0472 166.483 52.9222C167.124 53.7972 167.796 54.7503 168.311 55.7503C168.624 56.3597 168.967 56.969 169.264 57.5784L170.061 59.4847C170.789 61.4411 171.313 63.4675 171.624 65.5315C171.938 67.1173 172.11 68.7278 172.139 70.344C172.139 70.719 172.139 71.0784 172.139 71.4378C172.092 71.7268 172.014 72.0097 171.905 72.2815C171.788 72.4763 171.641 72.6505 171.467 72.7972C171.176 73.0315 170.81 73.1534 170.436 73.1409C170.259 73.156 170.082 73.156 169.905 73.1409C169.358 73.1409 168.952 72.4222 168.671 71.5784C168.358 69.094 168.03 66.6878 167.561 64.2034C167.182 62.3506 166.579 60.5508 165.764 58.844L165.733 58.7503Z" fill="#231F20"/>
    <path d="M164.297 149.828C164.078 149.828 164.078 149.547 164.297 149C164.401 148.764 164.538 148.543 164.703 148.344C164.849 148.266 165.001 148.198 165.156 148.141C165.234 148.141 166.156 148.313 166.484 148.328C166.781 148.364 167.07 148.442 167.344 148.563C167.906 148.781 168.484 148.953 169.062 149.141C169.195 149.183 169.317 149.252 169.422 149.344C169.797 149.639 170.245 149.828 170.719 149.891C170.758 149.91 170.8 149.92 170.844 149.92C170.887 149.92 170.93 149.91 170.969 149.891C171.512 149.877 172.049 150 172.531 150.25C172.868 150.543 173.223 150.814 173.594 151.063C173.594 151.063 173.719 151.063 173.734 151.219C173.75 151.375 173.922 151.5 174.047 151.563C174.217 151.65 174.375 151.761 174.516 151.891C174.585 152.01 174.642 152.135 174.688 152.266C174.698 152.443 174.648 152.619 174.547 152.766C174.437 152.859 174.453 153.047 174.422 153.203V153.359C173.995 153.583 173.536 153.741 173.063 153.828L172.25 153.719L171.297 153.625C171.203 153.625 171.125 153.625 171.047 153.484L169.719 153.234C169.484 153.109 169.203 153.109 169.031 152.797C169.031 152.797 168.953 152.797 168.891 152.797C168.462 152.641 168.053 152.437 167.672 152.188C167.469 152.078 167.25 152 167.031 151.906C166.812 151.813 167.031 151.906 166.937 151.813C166.844 151.719 166.938 151.719 166.813 151.703C166.297 151.5 165.859 151.156 165.25 150.984C165.125 150.984 164.703 150.422 164.562 150.375C164.422 150.328 164.391 149.813 164.297 149.828Z" fill="#231F20"/>
    <path d="M144.641 168.016C144.453 167.86 144.797 167.719 145.438 167.578C145.748 167.531 146.064 167.531 146.375 167.578C146.537 167.657 146.693 167.745 146.844 167.844C147.047 168.27 147.225 168.709 147.375 169.156C147.482 169.451 147.53 169.765 147.516 170.078C147.516 170.703 147.516 171.328 147.516 171.938C147.509 172.079 147.472 172.218 147.406 172.344C147.196 172.77 147.104 173.245 147.141 173.719C147.121 173.755 147.111 173.795 147.111 173.836C147.111 173.877 147.121 173.917 147.141 173.953C147.279 174.465 147.279 175.004 147.141 175.516C146.911 175.884 146.702 176.265 146.516 176.656C146.516 176.656 146.516 176.766 146.391 176.797C146.266 176.828 146.125 177.016 146.094 177.141C146.048 177.316 145.969 177.481 145.859 177.625C145.859 177.625 145.641 177.766 145.5 177.844C145.305 177.888 145.102 177.888 144.906 177.844C144.766 177.75 144.562 177.844 144.391 177.844H144.25C143.936 177.492 143.682 177.091 143.5 176.656V175.891C143.5 175.516 143.5 175.11 143.5 175.031C143.5 174.953 143.5 174.86 143.609 174.781C143.719 174.703 143.5 173.594 143.516 173.563C143.531 173.531 143.516 173.094 143.766 172.891C143.776 172.869 143.781 172.845 143.781 172.821C143.781 172.796 143.776 172.772 143.766 172.75C143.784 172.351 143.858 171.957 143.984 171.578C144 171.375 144 171.172 143.984 170.969V170.875C143.996 170.829 143.996 170.781 143.984 170.735C144.039 170.262 144.039 169.785 143.984 169.313C143.984 169.203 144.266 168.688 144.234 168.563C144.203 168.438 144.719 168.078 144.641 168.016Z" fill="#231F20"/>
    <path d="M50.0588 54.9219C49.8401 54.9219 49.8713 54.6562 50.0588 54.1719C50.1428 53.9508 50.2703 53.7489 50.4338 53.5781C50.5668 53.5036 50.7085 53.4459 50.8557 53.4062C50.8557 53.4063 51.7932 53.625 52.1057 53.6875C52.389 53.7393 52.6596 53.8455 52.9026 54L54.4651 54.8281C54.5781 54.8931 54.6787 54.9778 54.7619 55.0781C55.0536 55.4211 55.4233 55.689 55.8401 55.8594C55.8401 55.8594 55.9651 55.8594 56.0588 55.8594C56.5397 55.9984 56.9829 56.2441 57.3557 56.5781C57.5901 56.9219 57.8557 57.2188 58.1213 57.5469C58.1213 57.5469 58.2151 57.5469 58.2151 57.7031C58.2151 57.8594 58.3088 58 58.4026 58.0938C58.5326 58.2036 58.6482 58.3296 58.7463 58.4687C58.7656 58.5982 58.7656 58.7299 58.7463 58.8594C58.7125 59.0284 58.6248 59.1819 58.4963 59.2969C58.3713 59.2969 58.3401 59.5312 58.2619 59.6719V59.8125C57.8378 59.8833 57.4048 59.8833 56.9807 59.8125L56.3088 59.5156L55.5119 59.2031C55.4338 59.2031 55.3869 59.0781 55.3401 59.0156C55.2932 58.9531 54.2619 58.5781 54.2307 58.5312C54.1994 58.4844 53.8088 58.3437 53.7307 58.0312C53.7307 58.0312 53.7307 58.0312 53.6369 57.9219C53.2984 57.7124 52.9839 57.4661 52.6994 57.1875C52.5375 57.0587 52.365 56.9437 52.1838 56.8438C52.1838 56.8438 52.1838 56.8437 52.1838 56.75C52.1617 56.7022 52.1298 56.6596 52.0901 56.625C51.7071 56.3377 51.3052 56.0767 50.8869 55.8438C50.7932 55.8438 50.4651 55.3125 50.3401 55.2656C50.2151 55.2187 50.1369 54.9063 50.0588 54.9219Z" fill="#231F20"/>
    <path d="M78.5156 31.25C78.375 30.9688 78.7813 30.8281 79.5 30.7656C79.8387 30.7642 80.1739 30.8334 80.4844 30.9688C80.6439 31.13 80.7853 31.3082 80.9062 31.5C80.9062 31.5938 81.0312 33.0625 81.0781 33.5781C81.1144 34.0549 81.0775 34.5344 80.9688 35L80.5156 37.8125C80.486 38.0215 80.4171 38.2229 80.3125 38.4063C80.0038 39.0569 79.8336 39.7645 79.8125 40.4844C79.7867 40.5435 79.7734 40.6074 79.7734 40.6719C79.7734 40.7364 79.7867 40.8003 79.8125 40.8594C79.858 41.6429 79.7789 42.4288 79.5781 43.1875C79.2874 43.76 79.0317 44.3496 78.8125 44.9531C78.8125 45.0469 78.8125 45.1406 78.6875 45.2031C78.5625 45.2656 78.4063 45.5625 78.3594 45.75C78.3104 46.0166 78.2372 46.2781 78.1406 46.5313C78.0409 46.6836 77.9138 46.8161 77.7656 46.9219C77.5754 47 77.3621 47 77.1719 46.9219C77.0312 46.7969 76.8281 46.9219 76.6563 46.9219C76.5888 46.9296 76.5206 46.9296 76.4531 46.9219C76.0965 46.3488 75.823 45.728 75.6406 45.0781L75.5 42.3594C75.5088 42.2137 75.5574 42.0731 75.6406 41.9531C75.6406 41.875 75.6406 39.9844 75.6406 39.9063C75.7344 39.5313 75.6406 39.125 76.0313 38.7969C76.0617 38.7217 76.0617 38.6377 76.0313 38.5625C76.1445 37.9092 76.3118 37.2664 76.5312 36.6406C76.6154 36.3161 76.6832 35.9876 76.7344 35.6563C76.7561 35.599 76.7878 35.5461 76.8281 35.5C76.8708 35.4304 76.9074 35.3572 76.9375 35.2813C77.135 34.5203 77.2863 33.748 77.3906 32.9688C77.3906 32.7813 77.8906 32 77.8906 31.7969C77.8906 31.5938 78.625 31.3906 78.5156 31.25Z" fill="#231F20"/>
    <path d="M100.062 107.406C99.3122 108.531 98.4997 109.625 97.6559 110.672C97.3591 111.063 97.0466 111.437 96.7184 111.812C95.5517 113.089 94.3043 114.289 92.984 115.406L91.234 116.969C90.4811 117.584 89.676 118.133 88.8278 118.609C88.5622 118.75 88.5153 118.609 88.6403 118.359C88.8347 117.957 89.1053 117.596 89.4372 117.297C90.1403 116.594 90.8747 115.969 91.6091 115.344C92.3434 114.719 93.0778 114.062 93.7965 113.391C94.6568 112.563 95.4509 111.67 96.1715 110.719C97.0047 109.717 97.787 108.674 98.5153 107.594C98.9684 106.922 99.4059 106.219 99.8122 105.516C100.431 104.449 100.99 103.348 101.484 102.219C101.843 101.328 102.125 100.437 102.422 99.5469L102.609 98.9531C102.89 98.2344 103.078 98.0469 103.406 97.9688H103.625C103.843 97.9688 103.922 98.3281 103.843 98.9219C103.695 99.8012 103.481 100.668 103.203 101.516C102.896 102.371 102.536 103.205 102.125 104.016C101.518 105.247 100.84 106.442 100.093 107.594L100.062 107.406Z" fill="#231F20"/>
  </svg>