<svg width="153" height="144" viewBox="0 0 153 144" fill="none" xmlns="http://www.w3.org/2000/svg">
<path opacity="0.8" d="M65 22.9282C72.4256 18.641 81.5744 18.641 89 22.9282L120.426 41.0718C127.851 45.359 132.426 53.282 132.426 61.8564V98.1436C132.426 106.718 127.851 114.641 120.426 118.928L89 137.072C81.5744 141.359 72.4256 141.359 65 137.072L33.5744 118.928C26.1488 114.641 21.5744 106.718 21.5744 98.1436V61.8564C21.5744 53.282 26.1487 45.359 33.5744 41.0718L65 22.9282Z" fill="#F1EEFF"/>
<mask id="mask0_2_8" style="mask-type:alpha" maskUnits="userSpaceOnUse" x="21" y="19" width="112" height="122">
<path d="M65.0037 22.9282C72.4294 18.641 81.5781 18.641 89.0038 22.9282L120.429 41.0718C127.855 45.359 132.429 53.282 132.429 61.8564V98.1436C132.429 106.718 127.855 114.641 120.429 118.928L89.0037 137.072C81.5781 141.359 72.4294 141.359 65.0038 137.072L33.5781 118.928C26.1525 114.641 21.5781 106.718 21.5781 98.1436V61.8564C21.5781 53.282 26.1525 45.359 33.5781 41.0718L65.0037 22.9282Z" fill="white"/>
</mask>
<g mask="url(#mask0_2_8)">
<path d="M89.6384 58.134C85.6739 56 81.6306 56 78.2763 56H64.6692C60.4332 56 57 59.4332 57 63.6692V102.888C57 104.058 58.5706 104.432 59.099 103.387C59.2683 103.054 59.4435 102.713 59.6274 102.365C62.4096 97.1104 64.386 93.3736 68.1841 90.8513C69.7605 89.8032 73.0769 88.0195 78.4193 88.0516C80.1739 88.1275 85.2798 88.1159 90.0968 84.6739C91.2557 83.8478 97.5703 79.2936 97.5703 71.4054C97.5703 65.4558 94.0642 60.4987 89.6384 58.134ZM89.7698 72.3396C89.1976 73.5862 88.5057 74.7072 87.7117 75.6677C85.1601 78.7593 82.1795 79.4746 80.0016 79.9971C78.5741 80.3387 77.0998 80.5109 75.5934 80.5109C74.6417 80.5109 73.6783 80.4438 72.7061 80.3066C72.0055 80.2073 71.515 79.5592 71.6143 78.8586C71.7136 78.1579 72.3587 77.6733 73.0623 77.7667C75.2577 78.0762 77.3888 77.9857 79.4002 77.504C81.4292 77.0165 83.7267 76.4647 85.7294 74.0358C86.3804 73.2446 86.9555 72.3134 87.4343 71.2682C87.7292 70.6231 88.4911 70.3428 89.1334 70.6377C89.7844 70.9354 90.0676 71.6974 89.7698 72.3396Z" fill="url(#paint0_linear_2_8)"/>
</g>
<path d="M122 16C126.418 16 130 12.4183 130 8C130 3.58172 126.418 0 122 0C117.582 0 114 3.58172 114 8C114 12.4183 117.582 16 122 16Z" fill="#FFBC99"/>
<path d="M18 35C21.3137 35 24 32.3137 24 29C24 25.6863 21.3137 23 18 23C14.6863 23 12 25.6863 12 29C12 32.3137 14.6863 35 18 35Z" fill="#FFD88D"/>
<path d="M149 96C151.209 96 153 94.2091 153 92C153 89.7909 151.209 88 149 88C146.791 88 145 89.7909 145 92C145 94.2091 146.791 96 149 96Z" fill="#B5E4CA"/>
<path d="M2 61C3.10457 61 4 60.1046 4 59C4 57.8954 3.10457 57 2 57C0.89543 57 0 57.8954 0 59C0 60.1046 0.89543 61 2 61Z" fill="#B5E4CA"/>
<defs>
<linearGradient id="paint0_linear_2_8" x1="64.2012" y1="52.4" x2="108.45" y2="105.48" gradientUnits="userSpaceOnUse">
<stop offset="0.26" stop-color="#6244D6"/>
<stop offset="1" stop-color="#2B6CE1"/>
</linearGradient>
</defs>
</svg>
