<svg width="553" height="146" viewBox="0 0 553 146" fill="none" xmlns="http://www.w3.org/2000/svg">
<path d="M137.649 101.119C127.669 101.119 119.189 97.6691 112.199 90.7791C105.209 83.8891 101.719 75.3991 101.719 65.3291C101.719 55.2591 105.209 46.7791 112.199 39.8791C119.179 32.9891 127.669 29.5391 137.649 29.5391C147.719 29.5391 156.229 32.9891 163.169 39.8791C170.109 46.7791 173.579 55.2591 173.579 65.3291C173.579 75.3991 170.109 83.8891 163.169 90.7791C156.229 97.6691 147.719 101.119 137.649 101.119ZM122.539 80.7091C126.619 84.7891 131.659 86.8291 137.649 86.8291C143.639 86.8291 148.669 84.7891 152.759 80.7091C156.839 76.6291 158.879 71.4991 158.879 65.3291C158.879 59.1591 156.839 54.0291 152.759 49.9491C148.679 45.8691 143.639 43.8291 137.649 43.8291C131.659 43.8291 126.629 45.8691 122.539 49.9491C118.459 54.0291 116.419 59.1591 116.419 65.3291C116.419 71.4991 118.459 76.6191 122.539 80.7091Z" fill="url(#paint0_linear_35_41110)"/>
<path d="M186.918 97.01V7.56C186.918 3.38 190.308 0 194.478 0C198.418 0 201.618 3.20001 201.618 7.14001V97.02C201.618 98.31 200.568 99.36 199.278 99.36H189.258C187.958 99.35 186.918 98.3 186.918 97.01Z" fill="url(#paint1_linear_35_41110)"/>
<path d="M218.629 97.01V7.56C218.629 3.38 222.019 0 226.189 0C230.129 0 233.329 3.20001 233.329 7.14001V97.02C233.329 98.31 232.279 99.36 230.989 99.36H220.969C219.669 99.35 218.629 98.3 218.629 97.01Z" fill="url(#paint2_linear_35_41110)"/>
<path d="M298.107 31.3008H309.107C310.747 31.3008 311.877 32.9508 311.287 34.4908L286.567 97.8608C286.217 98.7608 285.357 99.3508 284.387 99.3508H270.567C269.607 99.3508 268.737 98.7608 268.387 97.8608L243.667 34.4908C243.067 32.9608 244.197 31.3008 245.847 31.3008H256.857C257.837 31.3008 258.717 31.9108 259.047 32.8308L275.337 77.1708C276.087 79.2108 278.977 79.2108 279.727 77.1608L295.897 32.8308C296.247 31.9208 297.127 31.3008 298.107 31.3008Z" fill="url(#paint3_linear_35_41110)"/>
<path d="M375.288 31.2993H385.318C386.608 31.2993 387.658 32.3493 387.658 33.6393V97.0093C387.658 98.2993 386.608 99.3493 385.318 99.3493H375.288C373.998 99.3493 372.948 98.2993 372.948 97.0093V95.7593C372.948 93.7493 370.538 92.6093 369.058 93.9693C363.898 98.7293 357.258 101.109 349.128 101.109C339.778 101.109 331.798 97.6393 325.178 90.6993C318.548 83.7593 315.238 75.2993 315.238 65.3193C315.238 55.2493 318.548 46.7693 325.178 39.8693C331.798 32.9793 339.788 29.5293 349.128 29.5293C357.258 29.5293 363.898 31.8793 369.058 36.5893C370.548 37.9493 372.948 36.7993 372.948 34.7893V33.6393C372.958 32.3493 373.998 31.2993 375.288 31.2993ZM336.078 80.9093C340.158 85.0393 345.288 87.0993 351.458 87.0993C357.628 87.0993 362.758 85.0393 366.838 80.9093C370.918 76.7793 372.958 71.5893 372.958 65.3293C372.958 59.0693 370.918 53.8793 366.838 49.7493C362.758 45.6193 357.628 43.5593 351.458 43.5593C345.288 43.5593 340.158 45.6293 336.078 49.7493C331.998 53.8793 329.958 59.0693 329.958 65.3293C329.958 71.5893 331.988 76.7793 336.078 80.9093Z" fill="url(#paint4_linear_35_41110)"/>
<path d="M452.997 31.299H463.027C464.317 31.299 465.367 32.3491 465.367 33.6391V97.0091C465.367 98.2991 464.317 99.349 463.027 99.349H452.997C451.707 99.349 450.657 98.2991 450.657 97.0091C450.657 94.9791 448.258 93.939 446.758 95.299C442.458 99.179 436.728 101.119 429.568 101.119C421.768 101.119 415.457 98.6191 410.647 93.6291C405.837 88.6391 403.438 81.7891 403.438 73.0791V33.6291C403.438 32.3391 404.487 31.2891 405.777 31.2891H415.797C417.087 31.2891 418.138 32.3391 418.138 33.6291V71.5791C418.138 76.6591 419.497 80.5591 422.217 83.2791C424.937 85.9991 428.658 87.359 433.378 87.359C438.548 87.359 442.717 85.7491 445.897 82.5291C449.067 79.3091 450.657 74.3891 450.657 67.7591V33.619C450.667 32.349 451.707 31.299 452.997 31.299Z" fill="url(#paint5_linear_35_41110)"/>
<path d="M482.508 97.01V7.56C482.508 3.38 485.898 0 490.068 0C494.008 0 497.208 3.20001 497.208 7.14001V97.02C497.208 98.31 496.158 99.36 494.868 99.36H484.848C483.558 99.35 482.508 98.3 482.508 97.01Z" fill="url(#paint6_linear_35_41110)"/>
<path d="M549.858 45.4595H537.658C536.368 45.4595 535.318 46.5094 535.318 47.7994V78.1294C535.318 80.9394 535.948 82.9594 537.218 84.1794C538.488 85.4094 540.368 86.0794 542.868 86.2194C544.798 86.3294 547.098 86.3394 549.768 86.2494C551.088 86.2094 552.188 87.2595 552.188 88.5795V97.2494C552.188 98.4394 551.288 99.4594 550.098 99.5795C539.928 100.579 532.558 99.5294 527.958 96.4194C523.058 93.1094 520.608 87.0094 520.608 78.1194V47.7894C520.608 46.4994 519.558 45.4495 518.268 45.4495H510.418C509.128 45.4495 508.078 44.3994 508.078 43.1094V33.6294C508.078 32.3394 509.128 31.2894 510.418 31.2894H518.268C519.558 31.2894 520.608 30.2395 520.608 28.9495V18.3494C520.608 17.3194 521.288 16.3994 522.278 16.1094L532.308 13.1395C533.808 12.6995 535.308 13.8194 535.308 15.3794V28.9694C535.308 30.2594 536.358 31.3094 537.648 31.3094H549.848C551.138 31.3094 552.188 32.3594 552.188 33.6494V43.1294C552.188 44.4094 551.148 45.4595 549.858 45.4595Z" fill="url(#paint7_linear_35_41110)"/>
<path d="M49.53 31.4609C56.55 31.4609 65.01 31.4609 73.31 35.9309C82.57 40.8809 89.91 51.251 89.91 63.701C89.91 80.211 76.69 89.7409 74.27 91.4709C64.19 98.6709 53.5 98.7009 49.83 98.5409C38.65 98.4709 31.71 102.211 28.41 104.401C20.46 109.681 16.32 117.501 10.5 128.501C7.98 133.261 6.19 137.381 5 140.321V45.1909C5 37.6109 11.15 31.4609 18.73 31.4609H49.53Z" stroke="url(#paint8_linear_35_41110)" stroke-width="9.4511" stroke-linecap="round" stroke-linejoin="round"/>
<path d="M36.9492 78.6502C43.3992 79.5602 48.5192 78.8602 52.0192 78.0202C56.9692 76.8302 62.6092 75.3802 67.5392 69.4002C69.5392 66.9802 70.8592 64.4902 71.6992 62.6602" stroke="url(#paint9_linear_35_41110)" stroke-width="5.6707" stroke-miterlimit="10" stroke-linecap="round" stroke-linejoin="round"/>
<defs>
<linearGradient id="paint0_linear_35_41110" x1="114.474" y1="24.1706" x2="177.56" y2="114.056" gradientUnits="userSpaceOnUse">
<stop offset="0.26" stop-color="#6244D6"/>
<stop offset="1" stop-color="#2B6CE1"/>
</linearGradient>
<linearGradient id="paint1_linear_35_41110" x1="189.527" y1="-7.452" x2="226.98" y2="0.412148" gradientUnits="userSpaceOnUse">
<stop offset="0.26" stop-color="#6244D6"/>
<stop offset="1" stop-color="#2B6CE1"/>
</linearGradient>
<linearGradient id="paint2_linear_35_41110" x1="221.238" y1="-7.452" x2="258.691" y2="0.412116" gradientUnits="userSpaceOnUse">
<stop offset="0.26" stop-color="#6244D6"/>
<stop offset="1" stop-color="#2B6CE1"/>
</linearGradient>
<linearGradient id="paint3_linear_35_41110" x1="255.564" y1="26.197" x2="315.65" y2="111.339" gradientUnits="userSpaceOnUse">
<stop offset="0.26" stop-color="#6244D6"/>
<stop offset="1" stop-color="#2B6CE1"/>
</linearGradient>
<linearGradient id="paint4_linear_35_41110" x1="328.093" y1="24.1608" x2="391.011" y2="114.506" gradientUnits="userSpaceOnUse">
<stop offset="0.26" stop-color="#6244D6"/>
<stop offset="1" stop-color="#2B6CE1"/>
</linearGradient>
<linearGradient id="paint5_linear_35_41110" x1="414.43" y1="26.0518" x2="478.177" y2="106.29" gradientUnits="userSpaceOnUse">
<stop offset="0.26" stop-color="#6244D6"/>
<stop offset="1" stop-color="#2B6CE1"/>
</linearGradient>
<linearGradient id="paint6_linear_35_41110" x1="485.117" y1="-7.452" x2="522.57" y2="0.412085" gradientUnits="userSpaceOnUse">
<stop offset="0.26" stop-color="#6244D6"/>
<stop offset="1" stop-color="#2B6CE1"/>
</linearGradient>
<linearGradient id="paint7_linear_35_41110" x1="515.908" y1="6.52531" x2="593.156" y2="62.1747" gradientUnits="userSpaceOnUse">
<stop offset="0.26" stop-color="#6244D6"/>
<stop offset="1" stop-color="#2B6CE1"/>
</linearGradient>
<linearGradient id="paint8_linear_35_41110" x1="20.0715" y1="23.2964" x2="121.565" y2="135.651" gradientUnits="userSpaceOnUse">
<stop offset="0.26" stop-color="#6244D6"/>
<stop offset="1" stop-color="#2B6CE1"/>
</linearGradient>
<linearGradient id="paint9_linear_35_41110" x1="43.1173" y1="61.4288" x2="52.3391" y2="89.131" gradientUnits="userSpaceOnUse">
<stop offset="0.26" stop-color="#6244D6"/>
<stop offset="1" stop-color="#2B6CE1"/>
</linearGradient>
</defs>
</svg>
