<svg xmlns="http://www.w3.org/2000/svg" xmlns:xlink="http://www.w3.org/1999/xlink" viewBox="0 0 720 720" width="720" height="720" preserveAspectRatio="xMidYMid meet" style="width: 100%; height: 100%; transform: translate3d(0px, 0px, 0px); content-visibility: visible;"><defs><clipPath id="__lottie_element_2044"><rect width="720" height="720" x="0" y="0"></rect></clipPath><clipPath id="__lottie_element_2046"><path d="M0,0 L512,0 L512,512 L0,512z"></path></clipPath><clipPath id="__lottie_element_2327"><path d="M0,0 L512,0 L512,512 L0,512z"></path></clipPath><clipPath id="__lottie_element_2331"><path d="M0,0 L512,0 L512,512 L0,512z"></path></clipPath><clipPath id="__lottie_element_2389"><path d="M0,0 L512,0 L512,512 L0,512z"></path></clipPath></defs><g clip-path="url(#__lottie_element_2044)"><g clip-path="url(#__lottie_element_2327)" transform="matrix(1.5,0,0,1.5,-24,-24)" opacity="1" style="display: block;"><g clip-path="url(#__lottie_element_2331)" transform="matrix(1,0,0,1,0,0)" opacity="1" style="display: block;"><g transform="matrix(0.4777774512767792,0,0,0.36718448996543884,82.8528060913086,222.3676300048828)" opacity="0.4355047536599188" style="display: block;"><g opacity="1" transform="matrix(1,0,0,1,0,0)"><path fill="rgb(255,209,59)" fill-opacity="1" d=" M0,-5 C2.759500026702881,-5 5,-2.759500026702881 5,0 C5,2.759500026702881 2.759500026702881,5 0,5 C-2.759500026702881,5 -5,2.759500026702881 -5,0 C-5,-2.759500026702881 -2.759500026702881,-5 0,-5z"></path></g></g><g transform="matrix(0.2457250952720642,0.5760944485664368,-0.45418277382850647,0.1937253773212433,270.552001953125,145.01025390625)" opacity="0.7104528069617715" style="display: block;"><g opacity="1" transform="matrix(1,0,0,1,-3.4210000038146973,4.043000221252441)"><path fill="rgb(255,181,59)" fill-opacity="1" d=" M0.012000000104308128,10.621000289916992 C0.012000000104308128,10.621000289916992 -5.695000171661377,5.340000152587891 -5.695000171661377,5.340000152587891 C-5.695000171661377,5.340000152587891 -2.556999921798706,-7.376999855041504 -2.556999921798706,-7.376999855041504 C-2.556999921798706,-7.376999855041504 3.1500000953674316,-2.0959999561309814 3.1500000953674316,-2.0959999561309814 C3.1500000953674316,-2.0959999561309814 0.012000000104308128,10.621000289916992 0.012000000104308128,10.621000289916992z"></path></g></g><g transform="matrix(0.0858943834900856,0.20137657225131989,-0.12125039845705032,0.05171767622232437,294.77850341796875,307.6903991699219)" opacity="0.5290334731664411" style="display: block;"><g opacity="1" transform="matrix(1,0,0,1,-3.4210000038146973,4.043000221252441)"><path fill="rgb(113,225,131)" fill-opacity="1" d=" M0.012000000104308128,10.621000289916992 C0.012000000104308128,10.621000289916992 -5.695000171661377,5.340000152587891 -5.695000171661377,5.340000152587891 C-5.695000171661377,5.340000152587891 -2.556999921798706,-7.376999855041504 -2.556999921798706,-7.376999855041504 C-2.556999921798706,-7.376999855041504 3.1500000953674316,-2.0959999561309814 3.1500000953674316,-2.0959999561309814 C3.1500000953674316,-2.0959999561309814 0.012000000104308128,10.621000289916992 0.012000000104308128,10.621000289916992z"></path></g></g><g transform="matrix(0.0017617808189243078,0.004130437504500151,-0.4727290868759155,0.20163604617118835,65.79627990722656,406.4017639160156)" opacity="0.2574161129107171" style="display: block;"><g opacity="1" transform="matrix(1,0,0,1,-3.4210000038146973,4.043000221252441)"><path fill="rgb(255,195,59)" fill-opacity="1" d=" M0.012000000104308128,10.621000289916992 C0.012000000104308128,10.621000289916992 -5.695000171661377,5.340000152587891 -5.695000171661377,5.340000152587891 C-5.695000171661377,5.340000152587891 -2.556999921798706,-7.376999855041504 -2.556999921798706,-7.376999855041504 C-2.556999921798706,-7.376999855041504 3.1500000953674316,-2.0959999561309814 3.1500000953674316,-2.0959999561309814 C3.1500000953674316,-2.0959999561309814 0.012000000104308128,10.621000289916992 0.012000000104308128,10.621000289916992z"></path></g></g><g transform="matrix(0.2106849104166031,0.49394387006759644,-0.34694600105285645,0.14798501133918762,113.83729553222656,183.38673400878906)" opacity="0.7924985670521012" style="display: block;"><g opacity="1" transform="matrix(1,0,0,1,-3.4210000038146973,4.043000221252441)"><path fill="rgb(255,174,59)" fill-opacity="1" d=" M0.012000000104308128,10.621000289916992 C0.012000000104308128,10.621000289916992 -5.695000171661377,5.340000152587891 -5.695000171661377,5.340000152587891 C-5.695000171661377,5.340000152587891 -2.556999921798706,-7.376999855041504 -2.556999921798706,-7.376999855041504 C-2.556999921798706,-7.376999855041504 3.1500000953674316,-2.0959999561309814 3.1500000953674316,-2.0959999561309814 C3.1500000953674316,-2.0959999561309814 0.012000000104308128,10.621000289916992 0.012000000104308128,10.621000289916992z"></path></g></g><g transform="matrix(0.22124619781970978,0.5187044143676758,-0.28218594193458557,0.12036250531673431,400.2983703613281,255.7157440185547)" opacity="0.7104528069617715" style="display: block;"><g opacity="1" transform="matrix(1,0,0,1,-3.4210000038146973,4.043000221252441)"><path fill="rgb(255,202,59)" fill-opacity="1" d=" M0.012000000104308128,10.621000289916992 C0.012000000104308128,10.621000289916992 -5.695000171661377,5.340000152587891 -5.695000171661377,5.340000152587891 C-5.695000171661377,5.340000152587891 -2.556999921798706,-7.376999855041504 -2.556999921798706,-7.376999855041504 C-2.556999921798706,-7.376999855041504 3.1500000953674316,-2.0959999561309814 3.1500000953674316,-2.0959999561309814 C3.1500000953674316,-2.0959999561309814 0.012000000104308128,10.621000289916992 0.012000000104308128,10.621000289916992z"></path></g></g><g transform="matrix(0.09698250144720078,0.22737228870391846,-0.2075054794549942,0.08850859105587006,187.0377197265625,256.6246643066406)" opacity="0.4355047536599188" style="display: block;"><g opacity="1" transform="matrix(1,0,0,1,-3.4210000038146973,4.043000221252441)"><path fill="rgb(255,83,59)" fill-opacity="1" d=" M0.012000000104308128,10.621000289916992 C0.012000000104308128,10.621000289916992 -5.695000171661377,5.340000152587891 -5.695000171661377,5.340000152587891 C-5.695000171661377,5.340000152587891 -2.556999921798706,-7.376999855041504 -2.556999921798706,-7.376999855041504 C-2.556999921798706,-7.376999855041504 3.1500000953674316,-2.0959999561309814 3.1500000953674316,-2.0959999561309814 C3.1500000953674316,-2.0959999561309814 0.012000000104308128,10.621000289916992 0.012000000104308128,10.621000289916992z"></path></g></g><g transform="matrix(0.13402652740478516,0.3142207860946655,-0.06930980086326599,0.029563134536147118,383.7318115234375,125.6873550415039)" opacity="0.5290334731664411" style="display: block;"><g opacity="1" transform="matrix(1,0,0,1,-7.381999969482422,-25.677000045776367)"><path fill="rgb(255,111,59)" fill-opacity="1" d=" M6,25.400999069213867 C6,25.400999069213867 11.7149019241333,35.29949951171875 11.7149019241333,35.29949951171875 C11.7149019241333,35.29949951171875 0.2850983738899231,35.29949951171875 0.2850983738899231,35.29949951171875 C0.2850983738899231,35.29949951171875 6,25.400999069213867 6,25.400999069213867z"></path></g></g><g transform="matrix(0.1726987361907959,0.40488651394844055,-0.6349039077758789,0.27080947160720825,132.0269012451172,280.9244384765625)" opacity="0.8648674627052342" style="display: block;"><g opacity="1" transform="matrix(1,0,0,1,-7.381999969482422,-25.677000045776367)"><path fill="rgb(255,97,59)" fill-opacity="1" d=" M6,25.400999069213867 C6,25.400999069213867 11.7149019241333,35.29949951171875 11.7149019241333,35.29949951171875 C11.7149019241333,35.29949951171875 0.2850983738899231,35.29949951171875 0.2850983738899231,35.29949951171875 C0.2850983738899231,35.29949951171875 6,25.400999069213867 6,25.400999069213867z"></path></g></g><g transform="matrix(0.1818566918373108,0.42635706067085266,-0.9467756152153015,0.4038340449333191,350.9946594238281,384.7242736816406)" opacity="0.7924985670521012" style="display: block;"><g opacity="1" transform="matrix(1,0,0,1,-7.381999969482422,-25.677000045776367)"><path fill="rgb(255,111,59)" fill-opacity="1" d=" M6,25.400999069213867 C6,25.400999069213867 11.7149019241333,35.29949951171875 11.7149019241333,35.29949951171875 C11.7149019241333,35.29949951171875 0.2850983738899231,35.29949951171875 0.2850983738899231,35.29949951171875 C0.2850983738899231,35.29949951171875 6,25.400999069213867 6,25.400999069213867z"></path></g></g><g transform="matrix(0.008032139390707016,0.01883108727633953,-0.5135562419891357,0.2190503031015396,126.4601821899414,90.82178497314453)" opacity="0.2574161129107171" style="display: block;"><g opacity="1" transform="matrix(1,0,0,1,-3.4210000038146973,4.043000221252441)"><path fill="rgb(113,225,131)" fill-opacity="1" d=" M0.012000000104308128,10.621000289916992 C0.012000000104308128,10.621000289916992 -5.695000171661377,5.340000152587891 -5.695000171661377,5.340000152587891 C-5.695000171661377,5.340000152587891 -2.556999921798706,-7.376999855041504 -2.556999921798706,-7.376999855041504 C-2.556999921798706,-7.376999855041504 3.1500000953674316,-2.0959999561309814 3.1500000953674316,-2.0959999561309814 C3.1500000953674316,-2.0959999561309814 0.012000000104308128,10.621000289916992 0.012000000104308128,10.621000289916992z"></path></g></g><g transform="matrix(0.005436155013740063,0.012744887731969357,-0.4413355886936188,0.18824557960033417,346.7409973144531,144.90542602539062)" opacity="0.17870260567941756" style="display: block;"><g opacity="1" transform="matrix(1,0,0,1,-3.4210000038146973,4.043000221252441)"><path fill="rgb(255,202,59)" fill-opacity="1" d=" M0.012000000104308128,10.621000289916992 C0.012000000104308128,10.621000289916992 -5.695000171661377,5.340000152587891 -5.695000171661377,5.340000152587891 C-5.695000171661377,5.340000152587891 -2.556999921798706,-7.376999855041504 -2.556999921798706,-7.376999855041504 C-2.556999921798706,-7.376999855041504 3.1500000953674316,-2.0959999561309814 3.1500000953674316,-2.0959999561309814 C3.1500000953674316,-2.0959999561309814 0.012000000104308128,10.621000289916992 0.012000000104308128,10.621000289916992z"></path></g></g><g transform="matrix(0.0909414291381836,0.21320919692516327,-0.2801159620285034,0.11947957426309586,105.30802917480469,259.4703063964844)" opacity="0.2574161129107171" style="display: block;"><g opacity="1" transform="matrix(1,0,0,1,-7.381999969482422,-25.677000045776367)"><path fill="rgb(252,200,82)" fill-opacity="1" d=" M6,25.400999069213867 C6,25.400999069213867 11.7149019241333,35.29949951171875 11.7149019241333,35.29949951171875 C11.7149019241333,35.29949951171875 0.2850983738899231,35.29949951171875 0.2850983738899231,35.29949951171875 C0.2850983738899231,35.29949951171875 6,25.400999069213867 6,25.400999069213867z"></path></g></g><g transform="matrix(0.1638091653585434,0.38404524326324463,-0.791985809803009,0.33781057596206665,398.0296325683594,416.562255859375)" opacity="0.6216566679672161" style="display: block;"><g opacity="1" transform="matrix(1,0,0,1,-7.381999969482422,-25.677000045776367)"><path fill="rgb(252,206,82)" fill-opacity="1" d=" M6,25.400999069213867 C6,25.400999069213867 11.7149019241333,35.29949951171875 11.7149019241333,35.29949951171875 C11.7149019241333,35.29949951171875 0.2850983738899231,35.29949951171875 0.2850983738899231,35.29949951171875 C0.2850983738899231,35.29949951171875 6,25.400999069213867 6,25.400999069213867z"></path></g></g><g transform="matrix(0.11749453097581863,0.2754620611667633,-0.5158071517944336,0.22001038491725922,244.3924102783203,153.603515625)" opacity="0.4355047536599188" style="display: block;"><g opacity="1" transform="matrix(1,0,0,1,-7.381999969482422,-25.677000045776367)"><path fill="rgb(252,206,82)" fill-opacity="1" d=" M6,25.400999069213867 C6,25.400999069213867 11.7149019241333,35.29949951171875 11.7149019241333,35.29949951171875 C11.7149019241333,35.29949951171875 0.2850983738899231,35.29949951171875 0.2850983738899231,35.29949951171875 C0.2850983738899231,35.29949951171875 6,25.400999069213867 6,25.400999069213867z"></path></g></g><g transform="matrix(0.11934632807970047,0.2798035442829132,-0.2817551791667938,0.12017876654863358,137.7360076904297,366.4763488769531)" opacity="0.7924985670521012" style="display: block;"><g opacity="1" transform="matrix(1,0,0,1,-7.381999969482422,-25.677000045776367)"><path fill="rgb(252,182,82)" fill-opacity="1" d=" M6,25.400999069213867 C6,25.400999069213867 11.7149019241333,35.29949951171875 11.7149019241333,35.29949951171875 C11.7149019241333,35.29949951171875 0.2850983738899231,35.29949951171875 0.2850983738899231,35.29949951171875 C0.2850983738899231,35.29949951171875 6,25.400999069213867 6,25.400999069213867z"></path></g></g><g transform="matrix(-0.0400923490524292,-0.09399519860744476,-0.18604472279548645,0.07935480028390884,340.0731506347656,202.16989135742188)" opacity="0.3439916166376976" style="display: block;"><g opacity="1" transform="matrix(1,0,0,1,-7.381999969482422,-25.677000045776367)"><path fill="rgb(252,182,82)" fill-opacity="1" d=" M6,25.400999069213867 C6,25.400999069213867 11.7149019241333,35.29949951171875 11.7149019241333,35.29949951171875 C11.7149019241333,35.29949951171875 0.2850983738899231,35.29949951171875 0.2850983738899231,35.29949951171875 C0.2850983738899231,35.29949951171875 6,25.400999069213867 6,25.400999069213867z"></path></g></g><g transform="matrix(1,0,0,1,256,256)" opacity="0.2574161129107171" style="display: block;"><g opacity="1" transform="matrix(1,0,0,1,0,0)"><path stroke-linecap="butt" stroke-linejoin="miter" fill-opacity="0" stroke-miterlimit="4" stroke="rgb(252,212,82)" stroke-opacity="1" stroke-width="18.460488275696978" d=" M102.83300018310547,-175.5240020751953 C102.88899993896484,-175.6840057373047 102.94400024414062,-175.8419952392578 103,-176"></path></g></g><g transform="matrix(-0.6947823166847229,-0.08530853688716888,0.08530853688716888,-0.6947823166847229,256,256)" opacity="0.4355047536599188" style="display: block;"><g opacity="1" transform="matrix(1,0,0,1,0,0)"><path stroke-linecap="butt" stroke-linejoin="miter" fill-opacity="0" stroke-miterlimit="4" stroke="rgb(113,225,131)" stroke-opacity="1" stroke-width="20.55085511596572" d=" M-104.36499786376953,-166.9429931640625 C-104.69200134277344,-167.41799926757812 -105.00800323486328,-167.91000366210938 -105.30999755859375,-168.42100524902344"></path></g></g><g transform="matrix(0.6947823166847229,-0.08530853688716888,0.08530853688716888,0.6947823166847229,256,256)" opacity="0.5290334731664411" style="display: block;"><g opacity="1" transform="matrix(1,0,0,1,0,0)"><path stroke-linecap="butt" stroke-linejoin="miter" fill-opacity="0" stroke-miterlimit="4" stroke="rgb(252,164,82)" stroke-opacity="1" stroke-width="8.259594350477803" d=" M-120.28099822998047,-218.45199584960938 C-120.4729995727539,-219.83700561523438 -120.64900207519531,-221.25799560546875 -120.80899810791016,-222.71499633789062"></path></g></g><g transform="matrix(-0.24674415588378906,0.3274405598640442,-0.3274405598640442,-0.24674415588378906,256,256)" opacity="0.6216566679672161" style="display: block;"><g opacity="1" transform="matrix(1,0,0,1,0,0)"><path stroke-linecap="butt" stroke-linejoin="miter" fill-opacity="0" stroke-miterlimit="4" stroke="rgb(255,174,59)" stroke-opacity="1" stroke-width="4.739372614520964" d=" M-120.08799743652344,-217.00900268554688 C-120.34100341796875,-218.76499938964844 -120.5719985961914,-220.57699584960938 -120.77899932861328,-222.44500732421875"></path></g></g><g transform="matrix(-0.6153786182403564,-0.07555899024009705,0.07555899024009705,-0.6153786182403564,179,312)" opacity="0.7104528069617715" style="display: block;"><g opacity="1" transform="matrix(1,0,0,1,0,0)"><path stroke-linecap="butt" stroke-linejoin="miter" fill-opacity="0" stroke-miterlimit="4" stroke="rgb(252,182,82)" stroke-opacity="1" stroke-width="14.839061901458898" d=" M101.33799743652344,-170.58099365234375 C101.78800201416016,-172.2830047607422 102.27899932861328,-173.91099548339844 102.80799865722656,-175.4499969482422"></path></g></g><g transform="matrix(0.32308441400527954,-0.25242120027542114,0.25242120027542114,0.32308441400527954,136,154)" opacity="0.9688446529009919" style="display: block;"><g opacity="1" transform="matrix(1,0,0,1,0,0)"><path stroke-linecap="butt" stroke-linejoin="miter" fill-opacity="0" stroke-miterlimit="4" stroke="rgb(255,174,59)" stroke-opacity="1" stroke-width="22.68885424395159" d=" M-117.27999877929688,-202.8459930419922 C-118.3499984741211,-206.9250030517578 -119.25700378417969,-211.4029998779297 -119.98799896240234,-216.32200622558594"></path></g></g></g><g clip-path="url(#__lottie_element_2389)" transform="matrix(-1,0,0,-1,512,512)" opacity="1" style="display: block;"><g transform="matrix(0.43339139223098755,0,0,0.8742836117744446,90.93525695800781,210.18466186523438)" opacity="1" style="display: block;"><g opacity="1" transform="matrix(1,0,0,1,0,0)"><path fill="rgb(255,172,35)" fill-opacity="1" d=" M0,-5 C2.759500026702881,-5 5,-2.759500026702881 5,0 C5,2.759500026702881 2.759500026702881,5 0,5 C-2.759500026702881,5 -5,2.759500026702881 -5,0 C-5,-2.759500026702881 -2.759500026702881,-5 0,-5z"></path></g></g><g transform="matrix(0.6174977421760559,-0.5778441429138184,0.5129972696304321,0.5482008457183838,275.1776428222656,200.4273223876953)" opacity="1" style="display: block;"><g opacity="1" transform="matrix(1,0,0,1,-3.4210000038146973,4.043000221252441)"><path fill="rgb(255,164,35)" fill-opacity="1" d=" M0.012000000104308128,10.621000289916992 C0.012000000104308128,10.621000289916992 -5.695000171661377,5.340000152587891 -5.695000171661377,5.340000152587891 C-5.695000171661377,5.340000152587891 -2.556999921798706,-7.376999855041504 -2.556999921798706,-7.376999855041504 C-2.556999921798706,-7.376999855041504 3.1500000953674316,-2.0959999561309814 3.1500000953674316,-2.0959999561309814 C3.1500000953674316,-2.0959999561309814 0.012000000104308128,10.621000289916992 0.012000000104308128,10.621000289916992z"></path></g></g><g transform="matrix(0.33235108852386475,-0.31100866198539734,0.3108503520488739,0.3321819305419922,283.1591491699219,297.0255432128906)" opacity="1" style="display: block;"><g opacity="1" transform="matrix(1,0,0,1,-3.4210000038146973,4.043000221252441)"><path fill="rgb(113,225,131)" fill-opacity="1" d=" M0.012000000104308128,10.621000289916992 C0.012000000104308128,10.621000289916992 -5.695000171661377,5.340000152587891 -5.695000171661377,5.340000152587891 C-5.695000171661377,5.340000152587891 -2.556999921798706,-7.376999855041504 -2.556999921798706,-7.376999855041504 C-2.556999921798706,-7.376999855041504 3.1500000953674316,-2.0959999561309814 3.1500000953674316,-2.0959999561309814 C3.1500000953674316,-2.0959999561309814 0.012000000104308128,10.621000289916992 0.012000000104308128,10.621000289916992z"></path></g></g><g transform="matrix(0.369659423828125,-0.3459211587905884,0.3267405331134796,0.3491625487804413,67.49459075927734,397.37060546875)" opacity="1" style="display: block;"><g opacity="1" transform="matrix(1,0,0,1,-3.4210000038146973,4.043000221252441)"><path fill="rgb(255,156,35)" fill-opacity="1" d=" M0.012000000104308128,10.621000289916992 C0.012000000104308128,10.621000289916992 -5.695000171661377,5.340000152587891 -5.695000171661377,5.340000152587891 C-5.695000171661377,5.340000152587891 -2.556999921798706,-7.376999855041504 -2.556999921798706,-7.376999855041504 C-2.556999921798706,-7.376999855041504 3.1500000953674316,-2.0959999561309814 3.1500000953674316,-2.0959999561309814 C3.1500000953674316,-2.0959999561309814 0.012000000104308128,10.621000289916992 0.012000000104308128,10.621000289916992z"></path></g></g><g transform="matrix(0.6926897764205933,-0.6482076048851013,0.8463500142097473,0.9044293165206909,397.3197021484375,255.95643615722656)" opacity="0.9246284713648989" style="display: block;"><g opacity="1" transform="matrix(1,0,0,1,-3.4210000038146973,4.043000221252441)"><path fill="rgb(255,156,35)" fill-opacity="1" d=" M0.012000000104308128,10.621000289916992 C0.012000000104308128,10.621000289916992 -5.695000171661377,5.340000152587891 -5.695000171661377,5.340000152587891 C-5.695000171661377,5.340000152587891 -2.556999921798706,-7.376999855041504 -2.556999921798706,-7.376999855041504 C-2.556999921798706,-7.376999855041504 3.1500000953674316,-2.0959999561309814 3.1500000953674316,-2.0959999561309814 C3.1500000953674316,-2.0959999561309814 0.012000000104308128,10.621000289916992 0.012000000104308128,10.621000289916992z"></path></g></g><g transform="matrix(0.5857639908790588,-0.5481482744216919,0.8084825277328491,0.86396324634552,182.8794708251953,256.7770690917969)" opacity="1" style="display: block;"><g opacity="1" transform="matrix(1,0,0,1,-3.4210000038146973,4.043000221252441)"><path fill="rgb(113,225,131)" fill-opacity="1" d=" M0.012000000104308128,10.621000289916992 C0.012000000104308128,10.621000289916992 -5.695000171661377,5.340000152587891 -5.695000171661377,5.340000152587891 C-5.695000171661377,5.340000152587891 -2.556999921798706,-7.376999855041504 -2.556999921798706,-7.376999855041504 C-2.556999921798706,-7.376999855041504 3.1500000953674316,-2.0959999561309814 3.1500000953674316,-2.0959999561309814 C3.1500000953674316,-2.0959999561309814 0.012000000104308128,10.621000289916992 0.012000000104308128,10.621000289916992z"></path></g></g><g transform="matrix(0.6556832194328308,-0.6135775446891785,0.6518437266349792,0.696575403213501,133.3800506591797,261.39892578125)" opacity="1" style="display: block;"><g opacity="1" transform="matrix(1,0,0,1,-7.381999969482422,-25.677000045776367)"><path fill="rgb(113,225,131)" fill-opacity="1" d=" M6,25.400999069213867 C6,25.400999069213867 11.7149019241333,35.29949951171875 11.7149019241333,35.29949951171875 C11.7149019241333,35.29949951171875 0.2850983738899231,35.29949951171875 0.2850983738899231,35.29949951171875 C0.2850983738899231,35.29949951171875 6,25.400999069213867 6,25.400999069213867z"></path></g></g><g transform="matrix(0.7031450271606445,-0.6579914689064026,0.3916623294353485,0.41853949427604675,349.497314453125,376.2762756347656)" opacity="1" style="display: block;"><g opacity="1" transform="matrix(1,0,0,1,-7.381999969482422,-25.677000045776367)"><path fill="rgb(255,180,35)" fill-opacity="1" d=" M6,25.400999069213867 C6,25.400999069213867 11.7149019241333,35.29949951171875 11.7149019241333,35.29949951171875 C11.7149019241333,35.29949951171875 0.2850983738899231,35.29949951171875 0.2850983738899231,35.29949951171875 C0.2850983738899231,35.29949951171875 6,25.400999069213867 6,25.400999069213867z"></path></g></g><g transform="matrix(-0.024118131026625633,0.6906529068946838,-0.6281360983848572,-0.02193499729037285,452.9153747558594,374.34722900390625)" opacity="0.9945717612701499" style="display: block;"><g opacity="1" transform="matrix(1,0,0,1,0,0)"><path fill="rgb(255,164,35)" fill-opacity="1" d=" M0,-5 C2.759500026702881,-5 5,-2.759500026702881 5,0 C5,2.759500026702881 2.759500026702881,5 0,5 C-2.759500026702881,5 -5,2.759500026702881 -5,0 C-5,-2.759500026702881 -2.759500026702881,-5 0,-5z"></path></g></g><g transform="matrix(0.6260055303573608,-0.5858055949211121,0.6582968235015869,0.703471302986145,158.54434204101562,105.04222106933594)" opacity="1" style="display: block;"><g opacity="1" transform="matrix(1,0,0,1,-3.4210000038146973,4.043000221252441)"><path fill="rgb(113,225,131)" fill-opacity="1" d=" M0.012000000104308128,10.621000289916992 C0.012000000104308128,10.621000289916992 -5.695000171661377,5.340000152587891 -5.695000171661377,5.340000152587891 C-5.695000171661377,5.340000152587891 -2.556999921798706,-7.376999855041504 -2.556999921798706,-7.376999855041504 C-2.556999921798706,-7.376999855041504 3.1500000953674316,-2.0959999561309814 3.1500000953674316,-2.0959999561309814 C3.1500000953674316,-2.0959999561309814 0.012000000104308128,10.621000289916992 0.012000000104308128,10.621000289916992z"></path></g></g><g transform="matrix(0.6447669267654419,-0.6033622026443481,0.5597891807556152,0.5982037782669067,357.07257080078125,146.73646545410156)" opacity="0.9945717612701499" style="display: block;"><g opacity="1" transform="matrix(1,0,0,1,-3.4210000038146973,4.043000221252441)"><path fill="rgb(113,225,131)" fill-opacity="1" d=" M0.012000000104308128,10.621000289916992 C0.012000000104308128,10.621000289916992 -5.695000171661377,5.340000152587891 -5.695000171661377,5.340000152587891 C-5.695000171661377,5.340000152587891 -2.556999921798706,-7.376999855041504 -2.556999921798706,-7.376999855041504 C-2.556999921798706,-7.376999855041504 3.1500000953674316,-2.0959999561309814 3.1500000953674316,-2.0959999561309814 C3.1500000953674316,-2.0959999561309814 0.012000000104308128,10.621000289916992 0.012000000104308128,10.621000289916992z"></path></g></g><g transform="matrix(0.49067243933677673,-0.4591631591320038,0.3331136107444763,0.3559729754924774,265.71661376953125,427.08050537109375)" opacity="0.8648674627052342" style="display: block;"><g opacity="1" transform="matrix(1,0,0,1,-3.4210000038146973,4.043000221252441)"><path fill="rgb(252,194,82)" fill-opacity="1" d=" M0.012000000104308128,10.621000289916992 C0.012000000104308128,10.621000289916992 -5.695000171661377,5.340000152587891 -5.695000171661377,5.340000152587891 C-5.695000171661377,5.340000152587891 -2.556999921798706,-7.376999855041504 -2.556999921798706,-7.376999855041504 C-2.556999921798706,-7.376999855041504 3.1500000953674316,-2.0959999561309814 3.1500000953674316,-2.0959999561309814 C3.1500000953674316,-2.0959999561309814 0.012000000104308128,10.621000289916992 0.012000000104308128,10.621000289916992z"></path></g></g><g transform="matrix(0.5220048427581787,-0.4884834587574005,0.6604359149932861,0.705757200717926,151.2945556640625,291.7652893066406)" opacity="1" style="display: block;"><g opacity="1" transform="matrix(1,0,0,1,-7.381999969482422,-25.677000045776367)"><path fill="rgb(252,200,82)" fill-opacity="1" d=" M6,25.400999069213867 C6,25.400999069213867 11.7149019241333,35.29949951171875 11.7149019241333,35.29949951171875 C11.7149019241333,35.29949951171875 0.2850983738899231,35.29949951171875 0.2850983738899231,35.29949951171875 C0.2850983738899231,35.29949951171875 6,25.400999069213867 6,25.400999069213867z"></path></g></g><g transform="matrix(0.681595504283905,-0.6378257870674133,0.38596290349960327,0.4124489426612854,381.2418518066406,419.28997802734375)" opacity="1" style="display: block;"><g opacity="1" transform="matrix(1,0,0,1,-7.381999969482422,-25.677000045776367)"><path fill="rgb(252,176,82)" fill-opacity="1" d=" M6,25.400999069213867 C6,25.400999069213867 11.7149019241333,35.29949951171875 11.7149019241333,35.29949951171875 C11.7149019241333,35.29949951171875 0.2850983738899231,35.29949951171875 0.2850983738899231,35.29949951171875 C0.2850983738899231,35.29949951171875 6,25.400999069213867 6,25.400999069213867z"></path></g></g><g transform="matrix(0.6174018383026123,-0.5777544379234314,0.7330482006072998,0.7833524346351624,247.83570861816406,150.8041534423828)" opacity="0.9246284713648989" style="display: block;"><g opacity="1" transform="matrix(1,0,0,1,-7.381999969482422,-25.677000045776367)"><path fill="rgb(113,225,131)" fill-opacity="1" d=" M6,25.400999069213867 C6,25.400999069213867 11.7149019241333,35.29949951171875 11.7149019241333,35.29949951171875 C11.7149019241333,35.29949951171875 0.2850983738899231,35.29949951171875 0.2850983738899231,35.29949951171875 C0.2850983738899231,35.29949951171875 6,25.400999069213867 6,25.400999069213867z"></path></g></g><g transform="matrix(0.5106744170188904,-0.47788065671920776,0.6342145800590515,0.6777365207672119,152.8743133544922,373.00439453125)" opacity="1" style="display: block;"><g opacity="1" transform="matrix(1,0,0,1,-7.381999969482422,-25.677000045776367)"><path fill="rgb(252,170,82)" fill-opacity="1" d=" M6,25.400999069213867 C6,25.400999069213867 11.7149019241333,35.29949951171875 11.7149019241333,35.29949951171875 C11.7149019241333,35.29949951171875 0.2850983738899231,35.29949951171875 0.2850983738899231,35.29949951171875 C0.2850983738899231,35.29949951171875 6,25.400999069213867 6,25.400999069213867z"></path></g></g><g transform="matrix(0.34702393412590027,-0.3247392475605011,0.47406911849975586,0.5066013336181641,333.8277893066406,199.2384490966797)" opacity="1" style="display: block;"><g opacity="1" transform="matrix(1,0,0,1,-7.381999969482422,-25.677000045776367)"><path fill="rgb(113,225,131)" fill-opacity="1" d=" M6,25.400999069213867 C6,25.400999069213867 11.7149019241333,35.29949951171875 11.7149019241333,35.29949951171875 C11.7149019241333,35.29949951171875 0.2850983738899231,35.29949951171875 0.2850983738899231,35.29949951171875 C0.2850983738899231,35.29949951171875 6,25.400999069213867 6,25.400999069213867z"></path></g></g><g transform="matrix(1,0,0,1,256,256)" opacity="1" style="display: block;"><g opacity="1" transform="matrix(1,0,0,1,0,0)"><path stroke-linecap="butt" stroke-linejoin="miter" fill-opacity="0" stroke-miterlimit="4" stroke="rgb(255,186,0)" stroke-opacity="1" stroke-width="14.877270100366506" d=" M111.06999969482422,-101.302001953125 C104.22599792480469,-105.66200256347656 100.302001953125,-116.24400329589844 98.7239990234375,-128.64500427246094"></path></g></g><g transform="matrix(-0.6947823166847229,-0.08530853688716888,0.08530853688716888,-0.6947823166847229,256,256)" opacity="1" style="display: block;"><g opacity="1" transform="matrix(1,0,0,1,0,0)"><path stroke-linecap="butt" stroke-linejoin="miter" fill-opacity="0" stroke-miterlimit="4" stroke="rgb(113,225,131)" stroke-opacity="1" stroke-width="30.888074885749276" d=" M-82.41300201416016,-155.21099853515625 C-87.5510025024414,-155.9739990234375 -92.3030014038086,-157.30999755859375 -96.36599731445312,-159.63999938964844"></path></g></g><g transform="matrix(0.6947823166847229,-0.08530853688716888,0.08530853688716888,0.6947823166847229,256,256)" opacity="1" style="display: block;"><g opacity="1" transform="matrix(1,0,0,1,0,0)"><path stroke-linecap="butt" stroke-linejoin="miter" fill-opacity="0" stroke-miterlimit="4" stroke="rgb(255,213,0)" stroke-opacity="1" stroke-width="22.5079633944265" d=" M30.316999435424805,-118.84100341796875 C29.761999130249023,-122.52100372314453 28.708999633789062,-126.28500366210938 27.097999572753906,-130.11199951171875 C16.923999786376953,-154.2729949951172 -0.5189999938011169,-161.46200561523438 -19.965999603271484,-163.51199340820312"></path></g></g><g transform="matrix(-0.24674415588378906,0.3274405598640442,-0.3274405598640442,-0.24674415588378906,256,256)" opacity="1" style="display: block;"><g opacity="1" transform="matrix(1,0,0,1,0,0)"><path stroke-linecap="butt" stroke-linejoin="miter" fill-opacity="0" stroke-miterlimit="4" stroke="rgb(113,225,131)" stroke-opacity="1" stroke-width="31.395341288096958" d=" M-101.34400177001953,-173.66099548339844 C-106.90799713134766,-178.69400024414062 -111.58399963378906,-185.74899291992188 -115.08399963378906,-195.65899658203125"></path></g></g><g transform="matrix(0.32308441400527954,-0.25242120027542114,0.25242120027542114,0.32308441400527954,136,154)" opacity="1" style="display: block;"><g opacity="1" transform="matrix(1,0,0,1,0,0)"><path stroke-linecap="butt" stroke-linejoin="miter" fill-opacity="0" stroke-miterlimit="4" stroke="rgb(113,225,131)" stroke-opacity="1" stroke-width="27.37296036326182" d=" M-55.465999603271484,-160.91600036621094 C-70.10199737548828,-161.26100158691406 -83.87100219726562,-162.2949981689453 -95.0530014038086,-169.00100708007812"></path></g></g></g></g><g clip-path="url(#__lottie_element_2046)" transform="matrix(0.6499999761581421,0,0,0.6499999761581421,193.60000610351562,193.60000610351562)" opacity="1" style="display: block;"><g transform="matrix(2.0571932792663574,0,0,2.0571932792663574,255,257)" opacity="0.027427570687946174" style="display: none;"><g opacity="1" transform="matrix(1,0,0,1,0,-3)"><path fill="rgb(156,165,255)" fill-opacity="1" d=" M0,-118 C65.12419891357422,-118 118,-65.12419891357422 118,0 C118,65.12419891357422 65.12419891357422,118 0,118 C-65.12419891357422,118 -118,65.12419891357422 -118,0 C-118,-65.12419891357422 -65.12419891357422,-118 0,-118z"></path></g></g><g transform="matrix(2.0643973350524902,0,0,2.0643973350524902,255,257)" opacity="0.015413057484454385" style="display: none;"><g opacity="1" transform="matrix(1,0,0,1,0,-3)"><path fill="rgb(102,114,255)" fill-opacity="1" d=" M0,-118 C65.12419891357422,-118 118,-65.12419891357422 118,0 C118,65.12419891357422 65.12419891357422,118 0,118 C-65.12419891357422,118 -118,65.12419891357422 -118,0 C-118,-65.12419891357422 -65.12419891357422,-118 0,-118z"></path></g></g><g transform="matrix(1.9343266487121582,0,0,1.9343266487121582,255,257)" opacity="0.3347126868641243" style="display: block;"><g opacity="1" transform="matrix(1,0,0,1,0,-3)"><path fill="rgb(122,133,255)" fill-opacity="1" d=" M0,-118 C65.12419891357422,-118 118,-65.12419891357422 118,0 C118,65.12419891357422 65.12419891357422,118 0,118 C-65.12419891357422,118 -118,65.12419891357422 -118,0 C-118,-65.12419891357422 -65.12419891357422,-118 0,-118z"></path></g></g><g transform="matrix(1.5099999904632568,0,0,1.5099999904632568,255,257)" opacity="1" style="display: block;"><g opacity="1" transform="matrix(1,0,0,1,0,-3)"><path fill="rgb(90,103,246)" fill-opacity="1" d=" M0,-118 C65.12419891357422,-118 118,-65.12419891357422 118,0 C118,65.12419891357422 65.12419891357422,118 0,118 C-65.12419891357422,118 -118,65.12419891357422 -118,0 C-118,-65.12419891357422 -65.12419891357422,-118 0,-118z"></path></g></g><g transform="matrix(1,0,0,1,256,256)" opacity="1" style="display: block;"><g opacity="1" transform="matrix(1,0,0,1,0,0)"><path stroke-linecap="round" stroke-linejoin="round" fill-opacity="0" stroke="rgb(255,255,255)" stroke-opacity="1" stroke-width="30" d=" M-82.5,4.5 C-82.5,4.5 -31,55 -31,55 C-31,55 73,-52.5 73,-52.5"></path></g></g></g></g></svg>