<svg width="37" height="36" viewBox="0 0 37 36" fill="none" xmlns="http://www.w3.org/2000/svg">
<path d="M35.1654 14.6668V28.0002C35.1654 31.6821 32.1806 34.6668 28.4987 34.6668H8.4987C4.8168 34.6668 1.83203 31.6821 1.83203 28.0002V8.00016C1.83203 4.31826 4.8168 1.3335 8.4987 1.3335H21.832M6.83203 18.0002H8.4987C10.3396 18.0002 11.832 16.5078 11.832 14.6668V13.0002C11.832 11.1592 13.3244 9.66683 15.1654 9.66683C17.0063 9.66683 18.4987 11.1592 18.4987 13.0002V23.0002C18.4987 24.8411 19.9911 26.3335 21.832 26.3335C23.673 26.3335 25.1654 24.8411 25.1654 23.0002V21.3335C25.1654 19.4925 26.6578 18.0002 28.4987 18.0002H30.1654M35.1654 5.50016C35.1654 7.80135 33.2999 9.66683 30.9987 9.66683C28.6975 9.66683 26.832 7.80135 26.832 5.50016C26.832 3.19898 28.6975 1.3335 30.9987 1.3335C33.2999 1.3335 35.1654 3.19898 35.1654 5.50016Z" stroke="#333333" stroke-width="2" stroke-linecap="round"/>
</svg>
