<svg width="37" height="37" viewBox="0 0 37 37" fill="none" xmlns="http://www.w3.org/2000/svg">
<rect x="0.5" y="0.5" width="36" height="36" rx="18" fill="#C0C0C0" fill-opacity="0.1"/>
<path d="M14.0886 12.9108C13.7632 12.5854 13.2355 12.5854 12.9101 12.9108C12.5847 13.2363 12.5847 13.7639 12.9101 14.0893L17.3208 18.5001L12.9101 22.9108C12.5847 23.2363 12.5847 23.7639 12.9101 24.0893C13.2356 24.4148 13.7632 24.4148 14.0886 24.0893L18.4994 19.6786L22.9101 24.0893C23.2355 24.4148 23.7632 24.4148 24.0886 24.0893C24.414 23.7639 24.414 23.2363 24.0886 22.9108L19.6779 18.5001L24.0886 14.0893C24.4141 13.7639 24.4141 13.2363 24.0886 12.9108C23.7632 12.5854 23.2356 12.5854 22.9101 12.9108L18.4994 17.3216L14.0886 12.9108Z" fill="#333333"/>
</svg>
