<svg xmlns="http://www.w3.org/2000/svg" width="20" height="22" viewBox="0 0 20 22" fill="none">
    <path d="M11.9988 3C11.9988 4.10457 11.1034 5 9.9988 5C8.89423 5 7.9988 4.10457 7.9988 3C7.9988 1.89543 8.89423 1 9.9988 1C11.1034 1 11.9988 1.89543 11.9988 3Z" stroke="#333333" stroke-width="1.5"/>
    <path d="M11.9988 19C11.9988 20.1046 11.1034 21 9.9988 21C8.89423 21 7.9988 20.1046 7.9988 19C7.9988 17.8954 8.89423 17 9.9988 17C11.1034 17 11.9988 17.8954 11.9988 19Z" stroke="#333333" stroke-width="1.5"/>
    <path d="M17.927 8.73205C16.9704 9.28433 15.7473 8.95658 15.195 8C14.6427 7.04341 14.9704 5.82023 15.927 5.26794C16.8836 4.71566 18.1068 5.04341 18.6591 6C19.2114 6.95658 18.8836 8.17976 17.927 8.73205Z" stroke="#333333" stroke-width="1.5"/>
    <path d="M4.07065 16.732C3.11406 17.2843 1.89088 16.9566 1.3386 16C0.786311 15.0434 1.11406 13.8202 2.07065 13.2679C3.02723 12.7157 4.25041 13.0434 4.8027 14C5.35498 14.9566 5.02723 16.1798 4.07065 16.732Z" stroke="#333333" stroke-width="1.5"/>
    <path d="M15.927 16.732C14.9704 16.1798 14.6427 14.9566 15.195 14C15.7473 13.0434 16.9704 12.7157 17.927 13.2679C18.8836 13.8202 19.2114 15.0434 18.6591 16C18.1068 16.9566 16.8836 17.2843 15.927 16.732Z" stroke="#333333" stroke-width="1.5"/>
    <path d="M2.07065 8.73208C1.11406 8.17979 0.786311 6.95661 1.3386 6.00003C1.89088 5.04344 3.11406 4.71569 4.07065 5.26797C5.02723 5.82026 5.35498 7.04344 4.8027 8.00003C4.25041 8.95661 3.02723 9.28436 2.07065 8.73208Z" stroke="#333333" stroke-width="1.5"/>
  </svg>