<svg width="31" height="30" viewBox="0 0 31 30" fill="none" xmlns="http://www.w3.org/2000/svg">
<path d="M21.168 24.8611C21.168 26.9853 16.168 28.3333 11.168 28.3333C5.33464 28.3333 1.16797 26.9853 1.16797 24.8611C1.16797 21.7628 6.16797 20 11.168 20C16.168 20 21.168 22.0833 21.168 24.8611Z" stroke="#C0C0C0" stroke-width="2" stroke-linecap="round" stroke-linejoin="round"/>
<path d="M11.1667 14.9998C14.8486 14.9998 17.8333 12.0151 17.8333 8.33317C17.8333 4.65127 14.8486 1.6665 11.1667 1.6665C7.48477 1.6665 4.5 4.65127 4.5 8.33317C4.5 12.0151 7.48477 14.9998 11.1667 14.9998Z" stroke="#C0C0C0" stroke-width="2" stroke-linecap="round" stroke-linejoin="round"/>
<path d="M27.0026 23.8899C28.7441 23.3962 29.5026 22.5783 29.5026 21.5346C29.5026 19.5179 26.6043 17.9422 22.8359 17.5791" stroke="#C0C0C0" stroke-width="2" stroke-linecap="round" stroke-linejoin="round"/>
<path d="M22.8359 13.3333C25.1371 13.3333 27.0026 11.4679 27.0026 9.16667C27.0026 6.86548 25.1371 5 22.8359 5" stroke="#C0C0C0" stroke-width="2" stroke-linecap="round" stroke-linejoin="round"/>
</svg>
