<svg xmlns="http://www.w3.org/2000/svg" width="24" height="24" viewBox="0 0 24 24" fill="none">
    <path fill-rule="evenodd" clip-rule="evenodd" d="M3 2.00977C3.55228 2.00977 4 2.45748 4 3.00977V19.0098C4 19.562 4.44772 20.0098 5 20.0098H21C21.5523 20.0098 22 20.4575 22 21.0098C22 21.562 21.5523 22.0098 21 22.0098H5C3.34315 22.0098 2 20.6666 2 19.0098V3.00977C2 2.45748 2.44772 2.00977 3 2.00977Z" fill="#333333"/>
    <path fill-rule="evenodd" clip-rule="evenodd" d="M7 8.00977C7.55228 8.00977 8 8.45748 8 9.00977V17.0098C8 17.5621 7.55228 18.0098 7 18.0098C6.44772 18.0098 6 17.5621 6 17.0098V9.00977C6 8.45748 6.44772 8.00977 7 8.00977Z" fill="#333333"/>
    <path fill-rule="evenodd" clip-rule="evenodd" d="M11 14.0098C11.5523 14.0098 12 14.4575 12 15.0098V17.0098C12 17.5621 11.5523 18.0098 11 18.0098C10.4477 18.0098 10 17.5621 10 17.0098V15.0098C10 14.4575 10.4477 14.0098 11 14.0098Z" fill="#333333"/>
    <path fill-rule="evenodd" clip-rule="evenodd" d="M15 4.00977C15.5523 4.00977 16 4.45748 16 5.00977V17.0098C16 17.5621 15.5523 18.0098 15 18.0098C14.4477 18.0098 14 17.5621 14 17.0098V5.00977C14 4.45748 14.4477 4.00977 15 4.00977Z" fill="#333333"/>
    <path fill-rule="evenodd" clip-rule="evenodd" d="M19 10.0098C19.5523 10.0098 20 10.4575 20 11.0098V17.0098C20 17.5621 19.5523 18.0098 19 18.0098C18.4477 18.0098 18 17.5621 18 17.0098V11.0098C18 10.4575 18.4477 10.0098 19 10.0098Z" fill="#333333"/>
  </svg>