<svg xmlns="http://www.w3.org/2000/svg" width="20" height="20" viewBox="0 0 20 20" fill="none">
    <g clip-path="url(#clip0_663_53554)">
        <path
            d="M9.99935 9.99984H9.24935C9.24935 10.3227 9.45592 10.6093 9.76218 10.7114L9.99935 9.99984ZM10.7493 5.83317C10.7493 5.41896 10.4136 5.08317 9.99935 5.08317C9.58514 5.08317 9.24935 5.41896 9.24935 5.83317H10.7493ZM12.2622 11.5447C12.6551 11.6757 13.0799 11.4633 13.2109 11.0703C13.3418 10.6774 13.1295 10.2526 12.7365 10.1217L12.2622 11.5447ZM10.7493 9.99984V5.83317H9.24935V9.99984H10.7493ZM9.76218 10.7114L12.2622 11.5447L12.7365 10.1217L10.2365 9.28833L9.76218 10.7114ZM17.5827 9.99984C17.5827 14.188 14.1875 17.5832 9.99935 17.5832V19.0832C15.0159 19.0832 19.0827 15.0164 19.0827 9.99984H17.5827ZM9.99935 17.5832C5.81119 17.5832 2.41602 14.188 2.41602 9.99984H0.916016C0.916016 15.0164 4.98276 19.0832 9.99935 19.0832V17.5832ZM2.41602 9.99984C2.41602 5.81168 5.81119 2.4165 9.99935 2.4165V0.916504C4.98276 0.916504 0.916016 4.98325 0.916016 9.99984H2.41602ZM9.99935 2.4165C14.1875 2.4165 17.5827 5.81168 17.5827 9.99984H19.0827C19.0827 4.98325 15.0159 0.916504 9.99935 0.916504V2.4165Z"
            fill="#333333" />
    </g>
    <defs>
        <clipPath id="clip0_663_53554">
            <rect width="20" height="20" fill="white" />
        </clipPath>
    </defs>
</svg>