<svg xmlns="http://www.w3.org/2000/svg" width="20" height="20" viewBox="0 0 20 20" fill="none">
  <path d="M14.1667 4.99984L14.1667 11.6665C14.1667 13.5075 12.6743 14.9998 10.8333 14.9998H5.83333M14.1667 4.99984C14.1667 3.15889 12.6743 1.6665 10.8333 1.6665L8.88071 1.6665C7.99666 1.6665 7.14881 2.01769 6.52369 2.64282L3.47631 5.69019C2.85119 6.31531 2.5 7.16316 2.5 8.04722L2.5 11.6665C2.5 13.5075 3.99238 14.9998 5.83333 14.9998M14.1667 4.99984C16.0076 4.99984 17.5 6.49222 17.5 8.33317V14.9998C17.5 16.8408 16.0076 18.3332 14.1667 18.3332H9.16667C7.32572 18.3332 5.83333 16.8408 5.83333 14.9998M7.5 1.6665L7.5 3.33317C7.5 5.17412 6.00762 6.6665 4.16667 6.6665L2.5 6.6665" stroke="#333333" stroke-width="1.5" stroke-linejoin="round"/>
</svg>