<svg width="40" height="40" viewBox="0 0 40 40" fill="none" xmlns="http://www.w3.org/2000/svg">
<rect width="40" height="40" rx="20" fill="#DAA520" fill-opacity="0.36"/>
<path d="M16 18H24M16 22H24M16 26H20M16 12C16 13.1046 16.8954 14 18 14H22C23.1046 14 24 13.1046 24 12M16 12C16 10.8954 16.8954 10 18 10H22C23.1046 10 24 10.8954 24 12M16 12H15C12.7909 12 11 13.7909 11 16V26C11 28.2091 12.7909 30 15 30H25C27.2091 30 29 28.2091 29 26V16C29 13.7909 27.2091 12 25 12H24" stroke="#333333" stroke-width="2" stroke-linecap="round"/>
</svg>
