<svg xmlns="http://www.w3.org/2000/svg" width="12" height="17" viewBox="0 0 12 17" fill="none">
    <path fill-rule="evenodd" clip-rule="evenodd" d="M0.667969 1.97428C0.667969 1.05381 1.41416 0.307617 2.33464 0.307617C3.25511 0.307617 4.0013 1.05381 4.0013 1.97428C4.0013 2.89476 3.25511 3.64095 2.33464 3.64095C1.41416 3.64095 0.667969 2.89476 0.667969 1.97428ZM0.667969 8.64095C0.667969 7.72048 1.41416 6.97428 2.33464 6.97428C3.25511 6.97428 4.0013 7.72048 4.0013 8.64095C4.0013 9.56143 3.25511 10.3076 2.33464 10.3076C1.41416 10.3076 0.667969 9.56143 0.667969 8.64095ZM2.33464 13.641C1.41416 13.641 0.667969 14.3871 0.667969 15.3076C0.667969 16.2281 1.41416 16.9743 2.33464 16.9743C3.25511 16.9743 4.0013 16.2281 4.0013 15.3076C4.0013 14.3871 3.25511 13.641 2.33464 13.641Z" fill="#868686"/>
    <path fill-rule="evenodd" clip-rule="evenodd" d="M8.66797 1.97428C8.66797 1.05381 9.41416 0.307617 10.3346 0.307617C11.2551 0.307617 12.0013 1.05381 12.0013 1.97428C12.0013 2.89476 11.2551 3.64095 10.3346 3.64095C9.41416 3.64095 8.66797 2.89476 8.66797 1.97428ZM8.66797 8.64095C8.66797 7.72048 9.41416 6.97428 10.3346 6.97428C11.2551 6.97428 12.0013 7.72048 12.0013 8.64095C12.0013 9.56143 11.2551 10.3076 10.3346 10.3076C9.41416 10.3076 8.66797 9.56143 8.66797 8.64095ZM10.3346 13.641C9.41416 13.641 8.66797 14.3871 8.66797 15.3076C8.66797 16.2281 9.41416 16.9743 10.3346 16.9743C11.2551 16.9743 12.0013 16.2281 12.0013 15.3076C12.0013 14.3871 11.2551 13.641 10.3346 13.641Z" fill="#868686"/>
  </svg>