<svg width="40" height="40" viewBox="0 0 40 40" fill="none" xmlns="http://www.w3.org/2000/svg">
<rect width="40" height="40" rx="20" fill="#FFDF00" fill-opacity="0.2"/>
<path d="M30 20C30 25.5228 25.5228 30 20 30M30 20C30 14.4772 25.5228 10 20 10M30 20C30 18.3431 25.5228 17 20 17C14.4772 17 10 18.3431 10 20M30 20C30 21.6569 25.5228 23 20 23C14.4772 23 10 21.6569 10 20M20 30C14.4772 30 10 25.5228 10 20M20 30C22.2091 30 24 25.5228 24 20C24 14.4772 22.2091 10 20 10M20 30C17.7909 30 16 25.5228 16 20C16 14.4772 17.7909 10 20 10M10 20C10 14.4772 14.4772 10 20 10" stroke="#333333" stroke-width="1.5"/>
</svg>
