<svg xmlns="http://www.w3.org/2000/svg" width="24" height="24" viewBox="0 0 24 24" fill="none">
    <path d="M9 7.00977C9 5.9052 9.89543 5.00977 11 5.00977H13C14.1046 5.00977 15 5.9052 15 7.00977V18.0098C15 18.562 14.5523 19.0098 14 19.0098H10C9.44772 19.0098 9 18.562 9 18.0098V7.00977Z" fill="#DAA520"/>
    <path d="M17 13.0098C17 12.4575 17.4477 12.0098 18 12.0098H20C21.1046 12.0098 22 12.9052 22 14.0098V18.0098C22 18.5621 21.5523 19.0098 21 19.0098H18C17.4477 19.0098 17 18.5621 17 18.0098V13.0098Z" fill="#DAA520"/>
    <path d="M2 12.0098C2 10.9052 2.89543 10.0098 4 10.0098H6C6.55228 10.0098 7 10.4575 7 11.0098V18.0098C7 18.5621 6.55228 19.0098 6 19.0098H3C2.44772 19.0098 2 18.5621 2 18.0098V12.0098Z" fill="#DAA520"/>
  </svg>