<svg width="22" height="18" viewBox="0 0 22 18" fill="none" xmlns="http://www.w3.org/2000/svg">
<path d="M15.8028 7.40746C16.0278 7.75522 16.4922 7.8547 16.8399 7.62966C17.1877 7.40463 17.2871 6.94029 17.0621 6.59254L15.8028 7.40746ZM4.93784 6.59254C4.71281 6.94029 4.81229 7.40463 5.16004 7.62966C5.5078 7.8547 5.97213 7.75522 6.19717 7.40746L4.93784 6.59254ZM14.6431 9.38587C14.8562 9.03069 14.7411 8.56999 14.3859 8.35688C14.0307 8.14377 13.57 8.25894 13.3569 8.61413L14.6431 9.38587ZM5 17.75H17V16.25H5V17.75ZM21.75 13V11H20.25V13H21.75ZM0.25 11V13H1.75V11H0.25ZM11 0.25C5.06294 0.25 0.25 5.06294 0.25 11H1.75C1.75 5.89137 5.89137 1.75 11 1.75V0.25ZM21.75 11C21.75 5.06294 16.9371 0.25 11 0.25V1.75C16.1086 1.75 20.25 5.89137 20.25 11H21.75ZM17 17.75C19.6234 17.75 21.75 15.6234 21.75 13H20.25C20.25 14.7949 18.7949 16.25 17 16.25V17.75ZM5 16.25C3.20507 16.25 1.75 14.7949 1.75 13H0.25C0.25 15.6234 2.37665 17.75 5 17.75V16.25ZM8.75 17C8.75 15.7574 9.75736 14.75 11 14.75V13.25C8.92893 13.25 7.25 14.9289 7.25 17H8.75ZM11 14.75C12.2426 14.75 13.25 15.7574 13.25 17H14.75C14.75 14.9289 13.0711 13.25 11 13.25V14.75ZM11 4.75C13.44 4.75 14.8577 5.94708 15.8028 7.40746L17.0621 6.59254C15.9152 4.82012 14.0722 3.25 11 3.25V4.75ZM6.19717 7.40746C7.1422 5.94708 8.55991 4.75 11 4.75V3.25C7.92771 3.25 6.0848 4.82012 4.93784 6.59254L6.19717 7.40746ZM11.6431 14.3859L14.6431 9.38587L13.3569 8.61413L10.3569 13.6141L11.6431 14.3859Z" fill="#333333"/>
</svg>
