<svg xmlns="http://www.w3.org/2000/svg" width="24" height="24" viewBox="0 0 24 24" fill="none">
    <ellipse cx="12" cy="16.5098" rx="6" ry="2.5" stroke="#333333" stroke-width="2" stroke-linejoin="round"/>
    <circle cx="12" cy="8.00977" r="3" stroke="#333333" stroke-width="2" stroke-linejoin="round"/>
    <path fill-rule="evenodd" clip-rule="evenodd" d="M6.44547 13.2715C5.20689 13.323 4.06913 13.5461 3.18592 13.8994C2.68122 14.1013 2.22245 14.3605 1.87759 14.6866C1.53115 15.0142 1.25 15.4612 1.25 16.01C1.25 16.5588 1.53115 17.0058 1.87759 17.3334C2.22245 17.6595 2.68122 17.9187 3.18592 18.1206C3.68571 18.3205 4.26701 18.4787 4.90197 18.5878C4.40834 18.0553 4.09852 17.4603 4.01985 16.8295C3.92341 16.797 3.83104 16.7631 3.74301 16.7279C3.34289 16.5678 3.06943 16.396 2.90826 16.2436C2.7498 16.0937 2.74999 16.0146 2.75 16.0101L2.75 16.01L2.75 16.0099C2.74999 16.0054 2.7498 15.9263 2.90826 15.7764C3.06943 15.624 3.34289 15.4522 3.74301 15.2921C3.94597 15.211 4.17201 15.1366 4.41787 15.0708C4.83157 14.381 5.53447 13.766 6.44547 13.2715Z" fill="#333333"/>
    <path fill-rule="evenodd" clip-rule="evenodd" d="M19.9803 16.8295C19.9016 17.4603 19.5918 18.0553 19.0982 18.5878C19.7331 18.4787 20.3144 18.3205 20.8142 18.1206C21.3189 17.9187 21.7777 17.6595 22.1226 17.3334C22.469 17.0058 22.7502 16.5588 22.7502 16.01C22.7502 15.4612 22.469 15.0142 22.1226 14.6866C21.7777 14.3605 21.3189 14.1013 20.8142 13.8994C19.931 13.5461 18.7933 13.323 17.5547 13.2715C18.4657 13.766 19.1686 14.381 19.5823 15.0708C19.8281 15.1366 20.0542 15.211 20.2571 15.2921C20.6573 15.4522 20.9307 15.624 21.0919 15.7764C21.2504 15.9263 21.2502 16.0054 21.2502 16.0099V16.01V16.0101C21.2502 16.0146 21.2504 16.0937 21.0919 16.2436C20.9307 16.396 20.6573 16.5678 20.2571 16.7279C20.1691 16.7631 20.0767 16.797 19.9803 16.8295Z" fill="#333333"/>
    <path fill-rule="evenodd" clip-rule="evenodd" d="M16.5157 10.1619C16.2958 10.6224 16.0075 11.0439 15.6641 11.4133C16.0599 11.634 16.5159 11.7598 17.0013 11.7598C18.5201 11.7598 19.7513 10.5285 19.7513 9.00977C19.7513 7.49098 18.5201 6.25977 17.0013 6.25977C16.897 6.25977 16.7941 6.26557 16.6928 6.27687C16.8649 6.74248 16.9696 7.24073 16.9951 7.75978C16.9972 7.75977 16.9992 7.75977 17.0013 7.75977C17.6916 7.75977 18.2513 8.31941 18.2513 9.00977C18.2513 9.70012 17.6916 10.2598 17.0013 10.2598C16.8291 10.2598 16.665 10.2249 16.5157 10.1619Z" fill="#333333"/>
    <path fill-rule="evenodd" clip-rule="evenodd" d="M7.30845 6.27687C7.20719 6.26557 7.10427 6.25977 7 6.25977C5.48122 6.25977 4.25 7.49098 4.25 9.00977C4.25 10.5285 5.48122 11.7598 7 11.7598C7.48537 11.7598 7.94138 11.634 8.33721 11.4133C7.99374 11.0439 7.70549 10.6224 7.4856 10.1619C7.33631 10.2249 7.17222 10.2598 7 10.2598C6.30964 10.2598 5.75 9.70012 5.75 9.00977C5.75 8.31941 6.30964 7.75977 7 7.75977C7.00205 7.75977 7.00409 7.75977 7.00614 7.75978C7.0317 7.24073 7.13641 6.74248 7.30845 6.27687Z" fill="#333333"/>
  </svg>