<svg xmlns="http://www.w3.org/2000/svg" width="25" height="24" viewBox="0 0 25 24" fill="none">
    <path d="M3.25 18H2.5H3.25ZM3.25 6H4H3.25ZM7.25 2V1.25V2ZM17.25 2V1.25V2ZM21.25 6H20.5H21.25ZM21.25 12.3431H22H21.25ZM11.5931 22V21.25V22ZM7.25 22V22.75V22ZM20.0784 15.1716L19.5481 14.6412V14.6412L20.0784 15.1716ZM14.4216 20.8284L14.9519 21.3588L14.4216 20.8284ZM13.25 18H12.5H13.25ZM17.25 14V13.25V14ZM8.71967 8.46967C8.42678 8.76256 8.42678 9.23744 8.71967 9.53033C9.01256 9.82322 9.48744 9.82322 9.78033 9.53033L8.71967 8.46967ZM10.8358 7.41422L11.3661 7.94455L10.8358 7.41422ZM13.6642 7.41421L13.1339 7.94454H13.1339L13.6642 7.41421ZM14.7197 9.53033C15.0126 9.82322 15.4874 9.82322 15.7803 9.53033C16.0732 9.23744 16.0732 8.76256 15.7803 8.46967L14.7197 9.53033ZM13 7C13 6.58579 12.6642 6.25 12.25 6.25C11.8358 6.25 11.5 6.58579 11.5 7H13ZM11.5 12C11.5 12.4142 11.8358 12.75 12.25 12.75C12.6642 12.75 13 12.4142 13 12H11.5ZM4 18L4 6H2.5L2.5 18H4ZM7.25 2.75L17.25 2.75V1.25L7.25 1.25V2.75ZM20.5 6V12.3431H22V6H20.5ZM11.5931 21.25H7.25V22.75H11.5931V21.25ZM19.5481 14.6412L13.8912 20.2981L14.9519 21.3588L20.6088 15.7019L19.5481 14.6412ZM11.5931 22.75C12.8529 22.75 14.0611 22.2496 14.9519 21.3588L13.8912 20.2981C13.2817 20.9076 12.4551 21.25 11.5931 21.25V22.75ZM20.5 12.3431C20.5 13.2051 20.1576 14.0318 19.5481 14.6412L20.6088 15.7019C21.4996 14.8111 22 13.6029 22 12.3431H20.5ZM4 6C4 4.20507 5.45508 2.75 7.25 2.75V1.25C4.62665 1.25 2.5 3.37665 2.5 6H4ZM2.5 18C2.5 20.6234 4.62665 22.75 7.25 22.75V21.25C5.45507 21.25 4 19.7949 4 18H2.5ZM17.25 2.75C19.0449 2.75 20.5 4.20508 20.5 6H22C22 3.37665 19.8734 1.25 17.25 1.25V2.75ZM14 22V18H12.5V22H14ZM17.25 14.75L21.25 14.75V13.25L17.25 13.25V14.75ZM14 18C14 16.2051 15.4551 14.75 17.25 14.75V13.25C14.6266 13.25 12.5 15.3766 12.5 18H14ZM9.78033 9.53033L11.3661 7.94455L10.3055 6.88388L8.71967 8.46967L9.78033 9.53033ZM13.1339 7.94454L14.7197 9.53033L15.7803 8.46967L14.1945 6.88388L13.1339 7.94454ZM11.5 7V12H13V7H11.5ZM11.3661 7.94455C11.8543 7.45639 12.6457 7.45639 13.1339 7.94454L14.1945 6.88388C13.1206 5.80994 11.3794 5.80994 10.3055 6.88388L11.3661 7.94455Z" fill="#28303F"/>
  </svg>