<svg width="40" height="40" viewBox="0 0 40 40" fill="none" xmlns="http://www.w3.org/2000/svg">
<path d="M28.678 15.485C29.3289 16.1359 29.3289 17.1911 28.678 17.842C28.0271 18.4929 26.9719 18.4929 26.321 17.842L21.6694 13.1904V25.0008C21.6694 25.9213 20.9232 26.6675 20.0028 26.6675C19.0823 26.6675 18.3361 25.9213 18.3361 25.0008V13.1903L13.6811 17.8453C13.0302 18.4961 11.975 18.4961 11.3241 17.8453C10.6732 17.1944 10.6732 16.1391 11.3241 15.4882L18.8242 7.98816C19.1367 7.6756 19.5606 7.5 20.0027 7.5C20.4447 7.5 20.8686 7.67559 21.1812 7.98816L28.678 15.485Z" fill="#C0C0C0"/>
<path fill-rule="evenodd" clip-rule="evenodd" d="M6.66667 23.334C7.58714 23.334 8.33333 24.0802 8.33333 25.0007V28.334C8.33333 29.2545 9.07953 30.0006 10 30.0006H30C30.9205 30.0006 31.6667 29.2545 31.6667 28.334V25.0007C31.6667 24.0802 32.4129 23.334 33.3333 23.334C34.2538 23.334 35 24.0802 35 25.0007V28.334C35 31.0954 32.7614 33.334 30 33.334H10C7.23858 33.334 5 31.0954 5 28.334V25.0007C5 24.0802 5.74619 23.334 6.66667 23.334Z" fill="#C0C0C0"/>
</svg>
