<svg xmlns="http://www.w3.org/2000/svg" width="24" height="24" viewBox="0 0 24 24" fill="none">
    <path
        d="M17.2052 9.2905C17.5958 9.68103 17.5958 10.3142 17.2052 10.7047C16.8147 11.0952 16.1816 11.0952 15.791 10.7047L13.0001 7.91377V15C13.0001 15.5523 12.5524 16 12.0001 16C11.4478 16 11.0001 15.5523 11.0001 15V7.91368L8.20711 10.7067C7.81658 11.0972 7.18342 11.0972 6.79289 10.7067C6.40237 10.3161 6.40237 9.68298 6.79289 9.29245L11.2929 4.79241C11.4805 4.60487 11.7348 4.49951 12 4.49951C12.2653 4.49951 12.5196 4.60487 12.7071 4.79241L17.2052 9.2905Z"
        fill="#333333" />
    <path fill-rule="evenodd" clip-rule="evenodd"
        d="M4 14C4.55228 14 5 14.4477 5 15V17C5 17.5523 5.44772 18 6 18H18C18.5523 18 19 17.5523 19 17V15C19 14.4477 19.4477 14 20 14C20.5523 14 21 14.4477 21 15V17C21 18.6569 19.6569 20 18 20H6C4.34315 20 3 18.6569 3 17V15C3 14.4477 3.44772 14 4 14Z"
        fill="#333333" />
</svg>